<svg width="14" height="14" viewBox="0 0 14 14" fill="none" xmlns="http://www.w3.org/2000/svg">
<path d="M4.42446 12.25C4.17829 12.25 3.97082 12.1656 3.80204 11.9969C3.63326 11.8281 3.54907 11.6208 3.54946 11.375C3.54985 11.1292 3.63404 10.9218 3.80204 10.7526C3.97082 10.5842 4.17829 10.5 4.42446 10.5C4.67063 10.5 4.8779 10.5842 5.04629 10.7526C5.21468 10.921 5.29907 11.1285 5.29946 11.375C5.29985 11.6216 5.21546 11.8289 5.04629 11.9969C4.87713 12.1649 4.66985 12.2492 4.42446 12.25ZM9.89846 12.25C9.65268 12.25 9.4454 12.1656 9.27663 11.9969C9.10785 11.8281 9.02346 11.6208 9.02346 11.375C9.02346 11.1292 9.10785 10.9218 9.27663 10.7526C9.4454 10.5842 9.65268 10.5 9.89846 10.5C10.1442 10.5 10.3517 10.5842 10.5209 10.7526C10.6893 10.9214 10.7735 11.1289 10.7735 11.375C10.7735 11.6208 10.6893 11.8281 10.5209 11.9969C10.3521 12.1656 10.1446 12.25 9.89846 12.25ZM1.32812 1.97402V1.39069H2.75612L5.14546 6.41669H9.01588C9.08315 6.41669 9.14304 6.39977 9.19554 6.36594C9.24765 6.3321 9.29238 6.28544 9.32971 6.22594L11.369 2.55735H12.034L9.82671 6.54444C9.74232 6.68638 9.63265 6.7978 9.49771 6.87869C9.36276 6.95958 9.2144 7.00002 9.05263 7.00002H4.88646L4.17771 8.30085C4.11782 8.39069 4.11587 8.48791 4.17188 8.59252C4.22788 8.69713 4.31207 8.74963 4.42446 8.75002H10.7735V9.33335H4.42446C4.08418 9.33335 3.82965 9.19044 3.66088 8.9046C3.4921 8.61877 3.4886 8.33002 3.65038 8.03835L4.52771 6.47502L2.38279 1.97402H1.32812Z" fill="white"/>
<path d="M7.21875 0.875V2.84375M7.21875 2.84375V4.8125M7.21875 2.84375H9.1875M7.21875 2.84375H5.25" stroke="white" stroke-width="1.3" stroke-linecap="square"/>
</svg>
