<svg width="96" height="72" viewBox="0 0 96 72" fill="none" xmlns="http://www.w3.org/2000/svg">
<mask id="mask0_933_624" style="mask-type:luminance" maskUnits="userSpaceOnUse" x="15" y="5" width="65" height="60">
<path d="M73.1322 17.9942C61.8688 5.52069 43.7094 4.93493 39.086 5.93653C34.4625 6.93819 27.8755 8.28643 29.1696 17.174C30.4637 26.0615 22.5697 30.1756 20.0796 32.5947C17.5895 35.0138 7.12214 48.2076 34.0452 61.9596C34.0452 61.9596 47.1882 69.8292 53.1342 60.1551C59.0801 50.481 66.2911 52.3762 73.0495 47.0311C79.8079 41.686 84.3956 30.4678 73.1322 17.9942Z" fill="url(#paint0_linear_933_624)"/>
</mask>
<g mask="url(#mask0_933_624)">
<path d="M73.1322 17.9943C61.8688 5.52081 43.7094 4.93505 39.086 5.93665C34.4625 6.93831 27.8755 8.28655 29.1696 17.1741C30.4637 26.0616 22.5697 30.1757 20.0796 32.5948C17.5895 35.0139 7.12214 48.2077 34.0452 61.9597C34.0452 61.9597 47.1882 69.8293 53.1342 60.1552C59.0801 50.4811 66.2911 52.3763 73.0495 47.0312C79.8079 41.6861 84.3956 30.4679 73.1322 17.9943Z" fill="url(#paint1_linear_933_624)"/>
</g>
<path d="M67.0584 11.8547L54.0926 14.734C52.9957 14.9777 52.125 16.3564 52.125 17.8186V53.9327C52.125 55.3949 52.9957 56.7737 54.0926 57.0173L67.0584 59.8967C68.5101 60.2191 69.7158 59.0778 69.7158 57.3397V14.4117C69.7158 12.6735 68.5101 11.5322 67.0584 11.8547Z" fill="#765EAD"/>
<path d="M66.25 59.9508H67.5293V11.7994H66.25V59.9508Z" fill="#765EAD"/>
<path d="M65.6756 11.8713L52.7097 14.7494C51.6129 14.9929 50.7422 16.371 50.7422 17.8325V53.9291C50.7422 55.3907 51.6129 56.7689 52.7097 57.0123L65.6756 59.8903C67.1272 60.2126 68.333 59.0718 68.333 57.3345V14.4272C68.333 12.6899 67.1272 11.5491 65.6756 11.8713Z" fill="#AA94DA"/>
<path d="M65.7235 13.273L63.2861 13.7822C63.2868 13.802 63.2873 13.8219 63.2873 13.842C63.2873 14.6048 62.779 15.3224 62.1584 15.4436L55.6041 16.7236C55.0651 16.8289 54.6325 16.3456 54.6325 15.6452C54.6325 15.6267 54.6329 15.6083 54.6336 15.5899L52.6655 16.001C52.0706 16.1252 51.5938 16.8705 51.5938 17.667V54.0949C51.5938 54.8914 52.0706 55.6367 52.6655 55.761L65.7235 58.489C66.5034 58.6519 67.1438 58.0333 67.1438 57.1052V14.6568C67.1438 13.7286 66.5034 13.1101 65.7235 13.273Z" fill="#765EAD"/>
<path d="M59.8424 14.4453L57.7507 14.8835C57.6769 14.899 57.6172 14.9878 57.6172 15.0819C57.6172 15.1761 57.6769 15.2401 57.7507 15.2249L59.8424 14.7938C59.9193 14.778 59.9818 14.687 59.9818 14.5906C59.9818 14.4942 59.9193 14.4292 59.8424 14.4453ZM61.0639 14.0131C60.9066 14.0463 60.7794 14.2307 60.7794 14.4249C60.7794 14.6192 60.9066 14.7507 61.0639 14.7185C61.2216 14.6863 61.3499 14.5017 61.3499 14.3064C61.3499 14.1111 61.2216 13.9798 61.0639 14.0131Z" fill="#D4C6F4"/>
<path d="M59.1084 22.8586C58.7552 22.8586 58.4688 23.1429 58.4688 23.4936V47.6222C58.4688 47.9729 58.7552 48.2572 59.1084 48.2572C59.4617 48.2572 59.7481 47.9729 59.7481 47.6222V23.4936C59.7481 23.1429 59.4617 22.8586 59.1084 22.8586Z" fill="#554384"/>
<path d="M55.4607 44.8049C54.8155 44.4319 49.2802 41.2916 49.2802 41.2916L48.7745 29.0227C48.7745 29.0227 41.6355 28.8246 40.4589 29.5246C39.2822 30.2247 38.1972 30.4399 36.9752 33.8187C35.7533 37.1975 32.5399 42.2608 23.2656 49.4893C23.2656 49.4893 23.9738 52.7418 25.6817 54.4526C27.3896 56.1635 29.8395 57.4641 29.8395 57.4641C29.8395 57.4641 32.4028 55.5583 35.4582 54.2296C38.5136 52.9009 40.6041 51.4593 41.6388 50.3259C42.6735 49.1925 45.01 45.3625 45.01 45.3625L48.2126 44.5818C48.2126 44.5818 49.0347 44.3557 49.4487 44.5818C49.8628 44.8079 53.4916 45.9655 54.3932 45.976C55.2949 45.9866 56.5036 45.9743 56.5283 45.6972C56.553 45.42 56.106 45.1779 55.4607 44.8049Z" fill="#EFCAD0"/>
<path d="M42.769 39.5271L39.7839 41.0616L38.0781 49.1044C38.0781 49.1044 43.4811 47.2351 43.4087 42.3315C43.3362 37.4279 42.769 39.5271 42.769 39.5271Z" fill="#212121" fill-opacity="0.1"/>
<path d="M62.8866 28.2032H40.6844C39.7498 28.2032 38.9922 28.9553 38.9922 29.883V41.7626C38.9922 42.6903 39.7498 43.4424 40.6844 43.4424H62.8866C63.8212 43.4424 64.5789 42.6903 64.5789 41.7626V29.883C64.5789 28.9553 63.8212 28.2032 62.8866 28.2032Z" fill="#10999E"/>
<path d="M62.8866 27.9915H40.6844C39.7498 27.9915 38.9922 28.7435 38.9922 29.6713V41.5508C38.9922 42.4785 39.7498 43.2306 40.6844 43.2306H62.8866C63.8212 43.2306 64.5789 42.4785 64.5789 41.5508V29.6713C64.5789 28.7435 63.8212 27.9915 62.8866 27.9915Z" fill="#6FC8CE"/>
<path d="M38.9922 33.6377H64.5789V30.8135H38.9922V33.6377Z" fill="#10999E"/>
<path d="M52.7344 41.2727H62.3294V39.897H52.7344V41.2727Z" fill="#AAE7EA"/>
<path d="M48.316 37.5555C48.2678 37.0685 46.799 37.3882 46.799 37.3882C46.799 37.3882 43.0654 37.8401 41.1241 37.9458C39.1828 38.0516 38.4833 39.2285 38.4833 39.2285L34.7188 44.0245L37.9776 49.1551C41.377 47.6273 41.6859 42.0168 41.6859 42.0168C41.6859 42.0168 45.3841 40.4924 46.8551 39.2843C48.3262 38.0761 48.3642 38.0424 48.316 37.5555Z" fill="#EFCAD0"/>
<path d="M65.7212 13.273L63.2837 13.7822C63.2845 13.802 63.285 13.8219 63.285 13.842C63.285 14.6048 62.7767 15.3224 62.1561 15.4436L59.6912 15.925V56.988H59.5312V57.1958L65.7212 58.489C66.5011 58.6519 67.1415 58.0333 67.1415 57.1052V14.6568C67.1415 13.7286 66.5011 13.1101 65.7212 13.273Z" fill="#765EAD"/>
<path d="M59.4903 23.7052H59.3837C59.2365 23.7052 59.1172 23.8236 59.1172 23.9698V47.2518C59.1172 47.3979 59.2365 47.5163 59.3837 47.5163H59.4903C59.6376 47.5163 59.7569 47.3979 59.7569 47.2518V23.9698C59.7569 23.8236 59.6376 23.7052 59.4903 23.7052Z" fill="#554384"/>
<mask id="mask1_933_624" style="mask-type:luminance" maskUnits="userSpaceOnUse" x="0" y="0" width="96" height="72">
<path d="M0 0H95.95V71.9625H0V0Z" fill="white"/>
</mask>
<g mask="url(#mask1_933_624)">
<mask id="mask2_933_624" style="mask-type:luminance" maskUnits="userSpaceOnUse" x="0" y="0" width="97" height="72">
<path d="M0.429688 0H96.3797V71.9625H0.429688V0Z" fill="white"/>
</mask>
<g mask="url(#mask2_933_624)">
<g opacity="0.999999">
<path d="M41.3288 22.5C39.4515 22.5 37.9297 24.011 37.9297 25.8749C37.9297 27.7388 39.4515 29.2498 41.3288 29.2498C43.206 29.2498 44.7279 27.7388 44.7279 25.8749C44.7279 24.011 43.206 22.5 41.3288 22.5Z" fill="#D69023"/>
<path d="M41.3288 22.1824C39.4515 22.1824 37.9297 23.6934 37.9297 25.5573C37.9297 27.4212 39.4515 28.9322 41.3288 28.9322C43.206 28.9322 44.7279 27.4212 44.7279 25.5573C44.7279 23.6934 43.206 22.1824 41.3288 22.1824Z" fill="#FFAF37"/>
<path d="M41.3444 22.7793C39.808 22.7793 38.5625 24.016 38.5625 25.5415C38.5625 27.0671 39.808 28.3038 41.3444 28.3038C42.8808 28.3038 44.1263 27.0671 44.1263 25.5415C44.1263 24.016 42.8808 22.7793 41.3444 22.7793Z" fill="#FFCD6C"/>
<path d="M41.8653 25.3831C41.7161 25.3005 41.5575 25.2375 41.4004 25.1722C41.3093 25.1344 41.2222 25.0904 41.1453 25.0289C40.9937 24.9078 41.0228 24.711 41.2002 24.633C41.2505 24.611 41.3031 24.6039 41.3565 24.6008C41.5622 24.5897 41.7577 24.6275 41.9438 24.7173C42.0365 24.7621 42.0671 24.748 42.0985 24.6512C42.1315 24.5488 42.159 24.445 42.1896 24.3418C42.21 24.2726 42.1849 24.2269 42.1197 24.1978C42.0004 24.1451 41.8779 24.1073 41.7491 24.0868C41.581 24.0608 41.581 24.0601 41.5802 23.8908C41.5795 23.6523 41.5795 23.6523 41.3408 23.6523C41.3062 23.6523 41.2717 23.6515 41.2371 23.6523C41.1256 23.6555 41.1068 23.6752 41.1036 23.7877C41.1021 23.8381 41.1036 23.8884 41.1029 23.9396C41.1021 24.0891 41.1013 24.0868 40.9584 24.1388C40.6128 24.2647 40.3993 24.5008 40.3765 24.8786C40.3561 25.2131 40.5304 25.439 40.8045 25.6035C40.9733 25.705 41.1601 25.7649 41.3392 25.8443C41.4091 25.8751 41.4758 25.9105 41.534 25.9593C41.7059 26.1018 41.6745 26.3386 41.4703 26.4283C41.3612 26.4764 41.2457 26.4882 41.1272 26.4732C40.9442 26.4504 40.7691 26.4024 40.6043 26.3166C40.5077 26.2662 40.4794 26.2796 40.4464 26.3843C40.4181 26.4748 40.393 26.5661 40.3679 26.6575C40.3341 26.7802 40.3467 26.8093 40.4637 26.8668C40.6128 26.9392 40.7723 26.9762 40.9347 27.0022C41.062 27.0226 41.0659 27.0281 41.0675 27.1603C41.0683 27.2201 41.0683 27.2808 41.069 27.3406C41.0699 27.4161 41.106 27.4602 41.1837 27.4618C41.2717 27.4634 41.3604 27.4634 41.4483 27.4611C41.5206 27.4595 41.5575 27.4201 41.5575 27.3469C41.5575 27.265 41.5614 27.1824 41.5583 27.1006C41.5544 27.0171 41.5905 26.9746 41.6706 26.9526C41.8551 26.9022 42.0121 26.803 42.1331 26.6551C42.4691 26.2458 42.3411 25.6468 41.8653 25.3831Z" fill="white"/>
</g>
</g>
<g opacity="0.999998">
<path d="M32.8047 24.1823C33.4068 24.1857 37.2705 24.2082 37.2705 24.2082" stroke="#A0BCBC" stroke-opacity="0.5" stroke-width="10" stroke-linecap="round"/>
</g>
<g opacity="0.999998">
<path d="M31.4844 25.5049C32.0865 25.5084 35.9502 25.5309 35.9502 25.5309" stroke="#A0BCBC" stroke-opacity="0.5" stroke-width="10" stroke-linecap="round"/>
</g>
<g opacity="0.999998">
<path d="M32.8359 26.801C33.4381 26.8045 37.3017 26.827 37.3017 26.827" stroke="#A0BCBC" stroke-opacity="0.5" stroke-width="10" stroke-linecap="round"/>
</g>
<mask id="mask3_933_624" style="mask-type:luminance" maskUnits="userSpaceOnUse" x="-13" y="10" width="97" height="73">
<path d="M-12.0469 10.371H83.9031V82.3335H-12.0469V10.371Z" fill="white"/>
</mask>
<g mask="url(#mask3_933_624)">
<mask id="mask4_933_624" style="mask-type:luminance" maskUnits="userSpaceOnUse" x="-21" y="10" width="97" height="73">
<path d="M-20.1172 10.3705H75.8328V82.333H-20.1172V10.3705Z" fill="white"/>
</mask>
<g mask="url(#mask4_933_624)">
<g opacity="0.682175">
<path d="M20.7819 32.8707C18.9046 32.8707 17.3828 34.3817 17.3828 36.2456C17.3828 38.1095 18.9046 39.6205 20.7819 39.6205C22.6592 39.6205 24.181 38.1095 24.181 36.2456C24.181 34.3817 22.6592 32.8707 20.7819 32.8707Z" fill="#D69023"/>
<path d="M20.7819 32.5531C18.9046 32.5531 17.3828 34.0641 17.3828 35.928C17.3828 37.7919 18.9046 39.3029 20.7819 39.3029C22.6592 39.3029 24.181 37.7919 24.181 35.928C24.181 34.0641 22.6592 32.5531 20.7819 32.5531Z" fill="#FFAF37"/>
<path d="M20.8053 33.1497C19.269 33.1497 18.0234 34.3864 18.0234 35.9119C18.0234 37.4375 19.269 38.6742 20.8053 38.6742C22.3417 38.6742 23.5873 37.4375 23.5873 35.9119C23.5873 34.3864 22.3417 33.1497 20.8053 33.1497Z" fill="#FFCD6C"/>
<path d="M21.3262 35.7537C21.177 35.6711 21.0184 35.6081 20.8614 35.5428C20.7703 35.505 20.6832 35.461 20.6062 35.3995C20.4546 35.2784 20.4837 35.0816 20.6611 35.0036C20.7114 34.9816 20.764 34.9745 20.8174 34.9714C21.0231 34.9604 21.2186 34.9981 21.4048 35.0879C21.4974 35.1327 21.5281 35.1186 21.5595 35.0218C21.5924 34.9195 21.6199 34.8156 21.6506 34.7125C21.671 34.6432 21.6458 34.5975 21.5807 34.5684C21.4613 34.5157 21.3388 34.4779 21.21 34.4574C21.042 34.4314 21.042 34.4307 21.0412 34.2614C21.0404 34.0229 21.0404 34.0229 20.8017 34.0229C20.7672 34.0229 20.7326 34.0221 20.698 34.0229C20.5866 34.0261 20.5677 34.0458 20.5646 34.1583C20.563 34.2087 20.5646 34.259 20.5638 34.3102C20.563 34.4597 20.5622 34.4574 20.4193 34.5094C20.0738 34.6353 19.8602 34.8714 19.8375 35.2492C19.817 35.5837 19.9914 35.8096 20.2654 35.9741C20.4342 36.0756 20.6211 36.1355 20.8002 36.2149C20.87 36.2457 20.9367 36.2811 20.9949 36.3299C21.1669 36.4724 21.1354 36.7093 20.9312 36.7989C20.8221 36.847 20.7067 36.8588 20.5881 36.8438C20.4052 36.821 20.2301 36.773 20.0652 36.6872C19.9686 36.6368 19.9403 36.6502 19.9073 36.7549C19.879 36.8454 19.8539 36.9367 19.8288 37.0281C19.795 37.1508 19.8076 37.1799 19.9246 37.2374C20.0738 37.3098 20.2332 37.3468 20.3957 37.3728C20.523 37.3932 20.5269 37.3987 20.5285 37.5309C20.5292 37.5907 20.5292 37.6514 20.53 37.7112C20.5308 37.7867 20.5669 37.8308 20.6447 37.8324C20.7326 37.834 20.8213 37.834 20.9093 37.8317C20.9815 37.8301 21.0184 37.7907 21.0184 37.7175C21.0184 37.6356 21.0223 37.553 21.0192 37.4712C21.0153 37.3877 21.0514 37.3452 21.1315 37.3232C21.3161 37.2728 21.473 37.1736 21.594 37.0257C21.9301 36.6164 21.802 36.0174 21.3262 35.7537Z" fill="white"/>
</g>
</g>
</g>
</g>
<defs>
<linearGradient id="paint0_linear_933_624" x1="48.226" y1="65.3706" x2="48.1734" y2="5.8369" gradientUnits="userSpaceOnUse">
<stop stop-color="white" stop-opacity="0"/>
<stop offset="0.5" stop-color="white" stop-opacity="0.5"/>
<stop offset="1" stop-color="white"/>
</linearGradient>
<linearGradient id="paint1_linear_933_624" x1="48.226" y1="65.3707" x2="48.1734" y2="5.83702" gradientUnits="userSpaceOnUse">
<stop stop-color="white"/>
<stop offset="0.05" stop-color="#E7F2F2"/>
<stop offset="1" stop-color="#CFE5E5"/>
</linearGradient>
</defs>
</svg>
