<svg width="84" height="85" viewBox="0 0 84 85" fill="none" xmlns="http://www.w3.org/2000/svg">
<path d="M65.1412 70.6465C65.1412 71.5038 52.3261 72.1976 36.5159 72.1976C20.7057 72.1976 7.89062 71.5038 7.89062 70.6465C7.89062 69.7891 20.7057 69.0953 36.5159 69.0953C52.3261 69.0953 65.1412 69.7891 65.1412 70.6465Z" fill="#2BA57B"/>
<path d="M19.213 7.96682C21.111 3.54189 30.3416 4.52615 32.3496 4.79689C32.6119 4.83355 32.8572 4.87586 33.1167 4.92944C35.1444 5.34402 44.7642 7.45072 50.0268 11.0804C54.0146 13.8301 56.8968 15.353 58.8653 19.7723C60.3431 23.0917 58.0982 25.9937 60.1655 28.9831C61.8943 31.4819 65.0952 30.664 66.6661 33.2642C67.0835 33.9524 67.3768 34.8915 67.5798 35.7573C67.9324 37.269 67.8196 38.837 67.5319 40.3627C66.965 43.355 65.6 46.147 63.4764 48.3327C62.3963 49.4439 61.2005 50.6312 60.1655 51.5562C55.6954 55.5525 52.3055 56.6834 47.686 60.5076C45.2239 62.5466 44.4568 64.5716 41.5745 65.9563C38.9179 67.231 37.1101 67.4848 34.1658 67.3833C31.6671 67.2959 29.9862 67.3692 27.9247 65.9563C25.6995 64.4305 24.5686 60.3299 24.2499 58.9903C24.1822 58.7027 24.123 58.4178 24.0581 58.1302L23.0936 53.8716C22.5888 51.6408 22.0783 49.2408 20.3806 47.7094C20.2537 47.5966 20.1267 47.4923 19.9942 47.4048C16.9483 45.3771 14.6527 51.5872 11.1528 50.5184C6.94783 49.2352 5.33184 43.4819 7.21857 39.511C7.30882 39.3221 7.40753 39.1416 7.5147 38.9724C9.46347 35.8842 13.0452 36.9418 15.7046 34.4318C18.8435 31.4706 20.5159 29.0931 21.1646 24.8318C21.5312 22.4148 20.7331 19.2026 20.0506 17.0508C19.5486 15.4743 18.9817 13.9034 18.8266 12.2564C18.6969 10.8717 18.6912 9.18234 19.213 7.96682Z" fill="#B3E7CD"/>
<mask id="mask0_933_729" style="mask-type:luminance" maskUnits="userSpaceOnUse" x="2" y="5" width="82" height="80">
<path d="M9.82812 5.95837L83.3678 13.1442L76.3465 84.9997L2.80688 77.8139L9.82812 5.95837Z" fill="white"/>
</mask>
<g mask="url(#mask0_933_729)">
<mask id="mask1_933_729" style="mask-type:luminance" maskUnits="userSpaceOnUse" x="1" y="13" width="82" height="81">
<path d="M9.14062 13.9158L82.6638 21.2684L75.4795 93.1078L1.95636 85.7552L9.14062 13.9158Z" fill="white"/>
</mask>
<g mask="url(#mask1_933_729)">
<mask id="mask2_933_729" style="mask-type:luminance" maskUnits="userSpaceOnUse" x="1" y="13" width="82" height="81">
<path d="M9.14062 13.916L82.6638 21.2687L75.4795 93.1081L1.95636 85.7554L9.14062 13.916Z" fill="white"/>
</mask>
<g mask="url(#mask2_933_729)">
<path d="M54.9226 52.433L9.38313 47.8789C8.18487 47.759 7.31101 46.691 7.43085 45.4927L10.1112 18.6905C10.231 17.4922 11.2991 16.6183 12.4973 16.7382L58.0368 21.2923C59.235 21.4122 60.1117 22.4805 59.9919 23.6787L57.3115 50.481C57.1917 51.6793 56.1208 52.5529 54.9226 52.433Z" fill="#2BA57B"/>
<path d="M56.6472 50.1551L10.8808 50.3117C9.67661 50.3158 8.69748 49.3434 8.69336 48.1391L8.60121 21.2033C8.59709 19.9991 9.56954 19.02 10.7738 19.0159L56.5401 18.8593C57.7443 18.8552 58.7263 19.8276 58.7304 21.0318L58.8226 47.9676C58.8267 49.1719 57.8514 50.151 56.6472 50.1551Z" fill="#2BA57B"/>
</g>
</g>
<mask id="mask3_933_729" style="mask-type:luminance" maskUnits="userSpaceOnUse" x="17" y="7" width="82" height="80">
<path d="M24.6172 7.40369L98.1568 14.5895L91.1356 86.445L17.5959 79.2592L24.6172 7.40369Z" fill="white"/>
</mask>
<g mask="url(#mask3_933_729)">
<mask id="mask4_933_729" style="mask-type:luminance" maskUnits="userSpaceOnUse" x="15" y="7" width="84" height="83">
<path d="M25.4531 7.48645L98.6487 17.5922L88.7743 89.1115L15.5788 79.0058L25.4531 7.48645Z" fill="white"/>
</mask>
<g mask="url(#mask4_933_729)">
<mask id="mask5_933_729" style="mask-type:luminance" maskUnits="userSpaceOnUse" x="15" y="7" width="84" height="83">
<path d="M25.4531 7.48669L98.6487 17.5924L88.7743 89.1118L15.5788 79.006L25.4531 7.48669Z" fill="white"/>
</mask>
<g mask="url(#mask5_933_729)">
<path d="M33.7261 14.3759C33.3821 16.8679 31.0865 18.6065 28.5945 18.2624C26.1025 17.9183 24.3611 15.6224 24.7052 13.1304C25.0493 10.6384 27.348 8.8974 29.84 9.24146C32.332 9.58552 34.0702 11.8839 33.7261 14.3759Z" fill="#EFEFEF"/>
<path d="M34.0855 24.3119C33.7414 26.8039 31.4459 28.5425 28.9539 28.1984C26.4619 27.8544 24.7205 25.5584 25.0646 23.0664C25.4086 20.5744 27.7074 18.8334 30.1994 19.1775C32.6914 19.5216 34.4296 21.8199 34.0855 24.3119Z" fill="#EFEFEF"/>
</g>
</g>
</g>
<mask id="mask6_933_729" style="mask-type:luminance" maskUnits="userSpaceOnUse" x="5" y="13" width="81" height="80">
<path d="M12.2656 13.3755L85.7888 20.7281L78.6045 92.5675L5.08136 85.2149L12.2656 13.3755Z" fill="white"/>
</mask>
<g mask="url(#mask6_933_729)">
<mask id="mask7_933_729" style="mask-type:luminance" maskUnits="userSpaceOnUse" x="5" y="13" width="81" height="80">
<path d="M12.2656 13.3757L85.7888 20.7284L78.6045 92.5678L5.08136 85.2151L12.2656 13.3757Z" fill="white"/>
</mask>
<g mask="url(#mask7_933_729)">
<path d="M58.2113 50.6273L11.6419 45.9702C10.2023 45.8262 9.14917 44.539 9.29313 43.0994L12.0046 15.9856C12.1486 14.5461 13.4358 13.4929 14.8754 13.6368L61.4448 18.294C62.8843 18.438 63.9347 19.7249 63.7907 21.1645L61.0792 48.2783C60.9353 49.7179 59.6509 50.7713 58.2113 50.6273Z" stroke="#454545" stroke-width="6" stroke-linecap="round" stroke-linejoin="round"/>
</g>
<mask id="mask8_933_729" style="mask-type:luminance" maskUnits="userSpaceOnUse" x="7" y="41" width="82" height="81">
<path d="M14.6797 41.9398L88.2028 49.2925L81.0186 121.132L7.49542 113.779L14.6797 41.9398Z" fill="white"/>
</mask>
<g mask="url(#mask8_933_729)">
<path d="M14.6797 41.9398L23.7578 42.8477" stroke="#454545" stroke-width="6" stroke-linecap="round" stroke-linejoin="round"/>
</g>
<mask id="mask9_933_729" style="mask-type:luminance" maskUnits="userSpaceOnUse" x="24" y="43" width="82" height="80">
<path d="M31.8281 43.6541L105.351 51.0067L98.167 122.846L24.6439 115.493L31.8281 43.6541Z" fill="white"/>
</mask>
<g mask="url(#mask9_933_729)">
<path d="M31.8281 43.6539L40.9063 44.5618" stroke="#454545" stroke-width="6" stroke-linecap="round" stroke-linejoin="round"/>
</g>
<mask id="mask10_933_729" style="mask-type:luminance" maskUnits="userSpaceOnUse" x="40" y="45" width="82" height="80">
<path d="M47.4844 45.2205L121.008 52.5731L113.823 124.413L40.3001 117.06L47.4844 45.2205Z" fill="white"/>
</mask>
<g mask="url(#mask10_933_729)">
<path d="M47.4844 45.2203L56.5625 46.1282" stroke="#454545" stroke-width="6" stroke-linecap="round" stroke-linejoin="round"/>
</g>
</g>
<mask id="mask11_933_729" style="mask-type:luminance" maskUnits="userSpaceOnUse" x="43" y="30" width="82" height="81">
<path d="M50.6406 30.8868L124.164 38.2395L116.98 110.079L43.4564 102.726L50.6406 30.8868Z" fill="white"/>
</mask>
<g mask="url(#mask11_933_729)">
<mask id="mask12_933_729" style="mask-type:luminance" maskUnits="userSpaceOnUse" x="43" y="30" width="82" height="81">
<path d="M50.6406 30.8866L124.164 38.2392L116.98 110.079L43.4564 102.726L50.6406 30.8866Z" fill="white"/>
</mask>
<g mask="url(#mask12_933_729)">
<path d="M62.9827 40.0823L51.4715 38.9311C50.5763 38.8416 49.9247 38.0452 50.0142 37.15L50.4787 32.5057C50.5682 31.6105 51.3646 30.9589 52.2598 31.0484L63.771 32.1996C64.6661 32.2891 65.3177 33.0855 65.2282 33.9807L64.7638 38.625C64.6743 39.5202 63.8778 40.1718 62.9827 40.0823Z" fill="#D6F4E4"/>
<path d="M62.9827 40.0823L51.4715 38.9311C50.5763 38.8416 49.9247 38.0452 50.0142 37.15L50.4787 32.5057C50.5682 31.6105 51.3646 30.9589 52.2598 31.0484L63.771 32.1996C64.6661 32.2891 65.3177 33.0855 65.2282 33.9807L64.7638 38.625C64.6743 39.5202 63.8778 40.1718 62.9827 40.0823Z" stroke="#454545" stroke-width="6" stroke-linecap="round" stroke-linejoin="round"/>
</g>
</g>
</g>
</svg>
