<svg width="24" height="24" viewBox="0 0 24 24" fill="none" xmlns="http://www.w3.org/2000/svg">
<path d="M13.2397 13.281C13.2397 12.559 12.9577 11.865 12.4547 11.347C12.27 11.1566 12.1685 10.9006 12.1725 10.6353C12.1766 10.37 12.2858 10.1172 12.4762 9.93251C12.6667 9.74779 12.9227 9.64628 13.1879 9.65031C13.4532 9.65434 13.706 9.76359 13.8907 9.95401C14.7552 10.8458 15.2386 12.039 15.2386 13.281C15.2386 14.523 14.7552 15.7162 13.8907 16.608L13.8877 16.612L9.97474 20.604C9.54429 21.0458 9.02974 21.3969 8.46142 21.6366C7.89311 21.8764 7.28255 21.9999 6.66574 21.9999C6.04893 21.9999 5.43836 21.8764 4.87005 21.6366C4.30174 21.3969 3.78718 21.0458 3.35674 20.604C2.48822 19.7128 2.0015 18.518 2 17.2736C1.99851 16.0292 2.48237 14.8333 3.34874 13.94L5.95573 11.2C6.13873 11.008 6.39052 10.8965 6.65569 10.8902C6.92087 10.8838 7.17772 10.983 7.36974 11.166C7.56175 11.349 7.67321 11.6008 7.67958 11.866C7.68596 12.1311 7.58674 12.388 7.40374 12.58L4.79874 15.317L4.78974 15.327C4.31624 15.8126 4.0366 16.4545 4.00345 17.1319C3.97029 17.8093 4.18592 18.4755 4.60974 19.005L4.78974 19.207C5.03386 19.4577 5.32572 19.6579 5.64809 19.794C5.97047 19.93 6.31683 20.0001 6.66674 20.0001C7.01664 20.0001 7.363 19.93 7.68538 19.794C8.00775 19.6579 8.29961 19.4587 8.54374 19.208L8.54574 19.206L12.4597 15.211C12.9597 14.693 13.2397 14.001 13.2397 13.281ZM19.9987 6.73201C19.9984 6.00708 19.7149 5.31094 19.2087 4.79201C18.9646 4.54133 18.6728 4.3411 18.3504 4.20505C18.028 4.06901 17.6816 3.99893 17.3317 3.99893C16.9818 3.99893 16.6355 4.06901 16.3131 4.20505C15.9907 4.3411 15.6989 4.54033 15.4547 4.79101L15.4517 4.79401L11.4027 8.91401C10.9392 9.3892 10.661 10.0146 10.6184 10.6771C10.5758 11.3396 10.7718 11.9954 11.1707 12.526C11.3299 12.7382 11.3982 13.0049 11.3607 13.2674C11.3232 13.53 11.1829 13.7669 10.9707 13.926C10.7586 14.0851 10.4919 14.1535 10.2293 14.116C9.96676 14.0785 9.72986 13.9382 9.57073 13.726C8.88585 12.8139 8.54973 11.6868 8.62309 10.5486C8.69644 9.41026 9.17444 8.33572 9.97074 7.51901L9.97474 7.51601L14.0247 3.39301C14.4553 2.95182 14.9697 2.60125 15.5378 2.36196C16.106 2.12266 16.7162 1.99948 17.3327 1.99966C17.9491 1.99985 18.5593 2.1234 19.1272 2.36304C19.6952 2.60268 20.2095 2.95356 20.6397 3.39501C21.5074 4.28395 21.9948 5.47593 21.9983 6.71816C22.0018 7.96038 21.5214 9.15513 20.6587 10.049L17.9487 12.98C17.8595 13.0765 17.7521 13.1544 17.6328 13.2094C17.5134 13.2643 17.3844 13.2953 17.2531 13.3004C17.1218 13.3055 16.9908 13.2847 16.8675 13.2391C16.7443 13.1936 16.6312 13.1242 16.5347 13.035C16.4383 12.9458 16.3603 12.8384 16.3054 12.7191C16.2504 12.5997 16.2195 12.4707 16.2144 12.3394C16.2093 12.2081 16.2301 12.0771 16.2756 11.9538C16.3211 11.8306 16.3905 11.7175 16.4797 11.621L19.1897 8.69101L19.2077 8.67101C19.7139 8.15208 19.9974 7.45595 19.9977 6.73101" fill="white"/>
</svg>
