<svg width="24" height="24" viewBox="0 0 24 24" fill="none" xmlns="http://www.w3.org/2000/svg">
<path d="M1.32812 11.9999L11.9948 1.33328L22.6615 11.9999M3.99479 9.99995V21.3333C3.99479 21.6869 4.13527 22.026 4.38532 22.2761C4.63536 22.5261 4.9745 22.6666 5.32813 22.6666H9.32813V18.6666C9.32813 18.313 9.4686 17.9739 9.71865 17.7238C9.9687 17.4738 10.3078 17.3333 10.6615 17.3333H13.3281C13.6817 17.3333 14.0209 17.4738 14.2709 17.7238C14.521 17.9739 14.6615 18.313 14.6615 18.6666V22.6666H18.6615C19.0151 22.6666 19.3542 22.5261 19.6043 22.2761C19.8543 22.026 19.9948 21.6869 19.9948 21.3333V9.99995" stroke="white" stroke-width="2.66667" stroke-linecap="round" stroke-linejoin="round"/>
</svg>
