<svg width="14" height="14" viewBox="0 0 14 14" fill="none" xmlns="http://www.w3.org/2000/svg">
<path d="M7.72058 7.74723C7.72058 7.32606 7.55608 6.92123 7.26266 6.61906C7.1549 6.50798 7.09569 6.35864 7.09804 6.2039C7.10039 6.04916 7.16412 5.90169 7.2752 5.79394C7.38628 5.68618 7.53562 5.62697 7.69036 5.62932C7.8451 5.63167 7.99257 5.6954 8.10033 5.80648C8.60459 6.32668 8.88659 7.02273 8.88659 7.74723C8.88659 8.47173 8.60459 9.16778 8.10033 9.68798L8.09858 9.69031L5.81599 12.019C5.5649 12.2767 5.26474 12.4815 4.93323 12.6213C4.60171 12.7612 4.24555 12.8332 3.88574 12.8332C3.52594 12.8332 3.16977 12.7612 2.83826 12.6213C2.50674 12.4815 2.20659 12.2767 1.95549 12.019C1.44886 11.4991 1.16494 10.8022 1.16406 10.0763C1.16319 9.35035 1.44544 8.65273 1.95082 8.13164L3.47157 6.53331C3.57832 6.4213 3.7252 6.35629 3.87988 6.35257C4.03457 6.34885 4.1844 6.40673 4.29641 6.51348C4.40842 6.62023 4.47343 6.7671 4.47715 6.92179C4.48087 7.07647 4.42299 7.2263 4.31624 7.33831L2.79666 8.93489L2.79141 8.94073C2.51521 9.22399 2.35208 9.59844 2.33274 9.9936C2.3134 10.3888 2.43918 10.7774 2.68641 11.0862L2.79141 11.2041C2.93381 11.3503 3.10406 11.4671 3.29212 11.5465C3.48017 11.6258 3.68221 11.6667 3.88633 11.6667C4.09044 11.6667 4.29248 11.6258 4.48053 11.5465C4.66859 11.4671 4.83884 11.3509 4.98124 11.2046L4.98241 11.2035L7.26558 8.87306C7.55724 8.57089 7.72058 8.16723 7.72058 7.74723ZM11.6633 3.92698C11.6631 3.5041 11.4978 3.09802 11.2025 2.79531C11.0601 2.64908 10.8898 2.53228 10.7018 2.45292C10.5137 2.37356 10.3117 2.33268 10.1076 2.33268C9.90346 2.33268 9.70142 2.37356 9.51337 2.45292C9.32531 2.53228 9.15506 2.6485 9.01266 2.79473L9.01091 2.79648L6.64899 5.19981C6.37858 5.47701 6.21628 5.84182 6.19146 6.22827C6.16664 6.61472 6.28093 6.9973 6.51366 7.30681C6.60648 7.43058 6.64634 7.58615 6.62446 7.73931C6.60258 7.89246 6.52076 8.03065 6.39699 8.12348C6.27322 8.2163 6.11765 8.25616 5.9645 8.23428C5.81134 8.2124 5.67315 8.13058 5.58032 8.00681C5.18081 7.47472 4.98474 6.8173 5.02753 6.15329C5.07032 5.48929 5.34915 4.86247 5.81366 4.38606L5.81599 4.38431L8.17849 1.97923C8.42964 1.72187 8.72975 1.51737 9.06114 1.37778C9.39254 1.23819 9.74852 1.16633 10.1081 1.16644C10.4677 1.16655 10.8236 1.23862 11.155 1.37841C11.4863 1.5182 11.7863 1.72288 12.0372 1.98039C12.5434 2.49894 12.8277 3.19427 12.8297 3.9189C12.8318 4.64353 12.5515 5.34047 12.0483 5.86189L10.4675 7.57164C10.4154 7.62791 10.3528 7.67337 10.2832 7.70544C10.2136 7.7375 10.1383 7.75554 10.0617 7.75851C9.98513 7.76149 9.9087 7.74936 9.83679 7.7228C9.76489 7.69624 9.69892 7.65578 9.64266 7.60373C9.58639 7.55168 9.54093 7.48905 9.50887 7.41943C9.4768 7.3498 9.45877 7.27455 9.45579 7.19796C9.45281 7.12136 9.46494 7.04493 9.4915 6.97303C9.51806 6.90113 9.55852 6.83516 9.61058 6.77889L11.1914 5.06973L11.2019 5.05806C11.4972 4.75535 11.6626 4.34927 11.6627 3.92639" fill="#464255"/>
</svg>
