<svg width="32" height="32" viewBox="0 0 32 32" fill="none" xmlns="http://www.w3.org/2000/svg">
<path d="M18.6641 2.96259C17.8018 2.78659 16.913 2.6977 15.9974 2.69592C8.6334 2.69592 2.66406 8.65859 2.66406 16.0146C2.66406 23.3706 8.6334 29.3333 15.9974 29.3333C23.3614 29.3333 29.3307 23.3706 29.3307 16.0146C29.329 15.1017 29.2401 14.2137 29.0641 13.3506" stroke="#192250" stroke-width="2" stroke-linecap="round"/>
<path d="M15.9948 12.0186C14.5215 12.0186 13.3281 12.9133 13.3281 14.0173C13.3281 15.12 14.5215 16.0146 15.9948 16.0146C17.4681 16.0146 18.6615 16.908 18.6615 18.012C18.6615 19.116 17.4681 20.0106 15.9948 20.0106M15.9948 12.0186C17.1548 12.0186 18.1441 12.5746 18.5095 13.352M15.9948 12.0186V10.6866M15.9948 20.0106C14.8348 20.0106 13.8455 19.4546 13.4801 18.6773M15.9948 20.0106V21.3426" stroke="#192250" stroke-width="2" stroke-linecap="round"/>
<path d="M29.3216 2.66663L23.7549 8.23196M22.6562 3.36129L22.8136 7.47863C22.8136 8.44929 23.3936 9.05463 24.4509 9.13063L28.6162 9.32663" stroke="#192250" stroke-width="2" stroke-linecap="round" stroke-linejoin="round"/>
</svg>
