<svg width="32" height="32" viewBox="0 0 32 32" fill="none" xmlns="http://www.w3.org/2000/svg">
<path d="M13.8289 17.5027C13.1064 16.5407 12.7518 15.3519 12.8293 14.1512C12.9068 12.9505 13.4113 11.8172 14.2516 10.956L19.6516 5.45738C20.1013 4.99554 20.639 4.62846 21.2329 4.37782C21.8269 4.12718 22.465 3.99805 23.1096 3.99805C23.7542 3.99805 24.3923 4.12718 24.9863 4.37782C25.5802 4.62846 26.1179 4.99554 26.5676 5.45738C27.4855 6.39865 27.9992 7.66133 27.9992 8.97604C27.9992 10.2908 27.4855 11.5534 26.5676 12.4947L22.9556 16.4014M17.5649 14.2014C18.476 15.1416 18.9855 16.3995 18.9855 17.7087C18.9855 19.018 18.476 20.2758 17.5649 21.216L12.3463 26.5427C11.8966 27.0044 11.3589 27.3713 10.7651 27.6218C10.1714 27.8723 9.53341 28.0014 8.88893 28.0014C8.24445 28.0014 7.6065 27.8723 7.01271 27.6218C6.41892 27.3713 5.88131 27.0044 5.4316 26.5427C4.51373 25.6014 4 24.3388 4 23.024C4 21.7093 4.51373 20.4467 5.4316 19.5054L8.9076 15.8534" stroke="#192250" stroke-width="2" stroke-miterlimit="10" stroke-linecap="round" stroke-linejoin="round"/>
</svg>
