<svg width="26" height="19" viewBox="0 0 26 19" fill="none" xmlns="http://www.w3.org/2000/svg">
<path fill-rule="evenodd" clip-rule="evenodd" d="M0.490746 8.20873L2.8683 9.00101V15.0567C2.8683 15.2058 2.91478 15.3512 3.00127 15.4727C3.08775 15.5941 3.20994 15.6856 3.35084 15.7343L12.666 18.9586C12.8133 19.011 12.9737 19.0137 13.1228 18.9665L13.1328 18.9636L13.1435 18.9601L22.4616 15.7343C22.6025 15.6856 22.7247 15.5941 22.8112 15.4727C22.8977 15.3512 22.9441 15.2058 22.9441 15.0567V9.00101L25.3217 8.20873C25.4314 8.17226 25.5306 8.10982 25.6109 8.02672C25.6913 7.94363 25.7503 7.84235 25.7831 7.73151C25.8158 7.62067 25.8213 7.50355 25.799 7.39014C25.7767 7.27673 25.7273 7.17039 25.6551 7.08018L22.7871 3.49521C22.7021 3.3893 22.5887 3.30974 22.4602 3.26577L13.1407 0.0392952C12.9888 -0.0132612 12.8237 -0.0132612 12.6718 0.0392952L3.35227 3.26577C3.22375 3.30974 3.11037 3.3893 3.02532 3.49521L0.157343 7.08018C0.0850973 7.17039 0.0357309 7.27673 0.0134498 7.39014C-0.00883137 7.50355 -0.00336649 7.62067 0.0293787 7.73151C0.0621239 7.84235 0.121179 7.94363 0.201512 8.02672C0.281844 8.10982 0.381074 8.17226 0.490746 8.20873ZM10.984 11.1656L12.1892 9.44483V17.2766L4.30229 14.5462V9.47853L10.1702 11.4345C10.3168 11.4832 10.4752 11.4833 10.6218 11.4347C10.7684 11.3861 10.8955 11.2922 10.984 11.1656ZM5.77715 3.94333L12.9062 6.41122L20.0353 3.94333L12.9062 1.47544L5.77715 3.94333ZM14.8285 11.1663L13.6232 9.44411V17.2766L21.5102 14.5462V9.47853L15.6423 11.4345C15.4957 11.4832 15.3373 11.4833 15.1907 11.4347C15.044 11.3861 14.917 11.2915 14.8285 11.1649M3.82907 4.78652L1.91972 7.17339L5.87107 8.49051L10.1157 9.90514L11.7741 7.53691L11.6773 7.50321L3.82907 4.78652ZM23.8927 7.17339L21.9834 4.7858L14.0384 7.53691L15.6968 9.90514L23.8927 7.17339Z" fill="black"/>
</svg>
