<svg width="255" height="206" viewBox="0 0 255 206" fill="none" xmlns="http://www.w3.org/2000/svg">
<g clip-path="url(#clip0_399_1279)">
<path d="M145.269 182.243C143.506 179.769 141.119 177.959 138.118 177.282C135.501 176.691 132.811 176.792 130.151 176.812L96.5171 177.072C93.6366 177.094 90.8748 179.595 91.0086 182.591C91.1414 185.563 93.4295 188.135 96.5171 188.111C106.369 188.035 116.222 187.959 126.074 187.882C128.397 187.864 130.721 187.822 133.044 187.83C133.565 187.832 134.085 187.859 134.606 187.865C134.732 187.867 134.823 187.866 134.888 187.863C134.904 187.868 134.917 187.872 134.938 187.878C135.21 187.953 135.489 188.004 135.762 188.075C135.667 188.078 135.94 188.249 136.077 188.307C136.096 188.344 136.136 188.41 136.203 188.512C136.297 188.688 136.574 189.222 136.585 189.206C137.002 190.261 137.345 191.343 137.614 192.446C138.254 194.877 138.395 195.385 138.487 197.666C138.603 200.547 140.937 203.322 143.995 203.185C146.88 203.055 149.629 200.756 149.504 197.666C149.293 192.459 148.381 186.61 145.269 182.243Z" fill="#E6E6E6"/>
<path d="M98.493 194.698C97.8612 190.862 97.2416 187.024 96.5976 183.191C95.9441 179.302 94.6095 175.74 91.589 173.188C90.7819 172.506 89.9451 171.869 89.1047 171.234C88.8092 171.011 88.5142 170.788 88.2222 170.56C88.2047 170.546 88.1936 170.538 88.1785 170.526C88.1464 170.498 88.1079 170.465 88.0561 170.421C86.7972 169.354 85.5807 168.239 84.422 167.053C83.393 166.001 82.409 164.903 81.4699 163.761C81.2352 163.475 81.0036 163.188 80.7749 162.897C80.7356 162.847 80.5238 162.573 80.3843 162.394C80.2545 162.215 80.0173 161.891 79.9774 161.835C79.7103 161.456 79.448 161.074 79.1904 160.689C77.4359 158.055 75.9167 155.271 74.6504 152.37C74.5248 152.082 74.4022 151.793 74.2825 151.502C74.2504 151.413 74.2089 151.299 74.1538 151.147C73.8986 150.444 73.6439 149.741 73.4106 149.03C72.9148 147.519 72.4886 145.985 72.132 144.43C71.9556 143.661 71.7969 142.889 71.6557 142.113C71.5829 141.714 71.5148 141.314 71.4515 140.914C71.441 140.847 71.3792 140.415 71.3427 140.17C71.3158 139.925 71.2657 139.49 71.259 139.423C71.2186 139.019 71.1828 138.615 71.1516 138.21C71.0811 137.299 71.0335 136.387 71.0087 135.473C70.9663 133.85 70.9954 132.226 71.0958 130.602C71.1529 129.69 71.2343 128.78 71.3345 127.872C71.3405 127.816 71.3452 127.771 71.3496 127.731C71.3557 127.691 71.3627 127.645 71.3711 127.587C71.4453 127.086 71.5233 126.584 71.6105 126.085C71.9409 124.188 72.3706 122.309 72.8979 120.457C73.1475 119.581 73.4187 118.713 73.7113 117.851C73.8418 117.468 73.9764 117.087 74.1151 116.708C74.106 116.732 74.5221 115.668 74.5277 115.632C76.1785 111.724 78.8786 108.161 78.8823 103.722C78.8848 100.716 76.3469 97.8366 73.3738 97.9755C71.8915 98.0314 70.4887 98.6618 69.4611 99.7337C68.4335 100.806 67.8614 102.235 67.8653 103.722C67.8653 103.789 67.8649 103.847 67.8648 103.903C67.8371 103.996 67.8139 104.074 67.793 104.143C67.4711 104.844 67.0767 105.51 66.7234 106.194C65.7557 108.065 64.9298 109.997 64.1453 111.958C62.8609 115.15 61.8778 118.457 61.2088 121.833C59.7547 129.231 59.6419 136.831 60.8756 144.269C63.0114 157.313 70.0547 169.799 79.8465 178.192C80.6963 178.92 81.5667 179.624 82.4454 180.314C82.809 180.599 83.1757 180.879 83.5442 181.158C83.7183 181.289 84.4398 181.859 84.1224 181.583C84.805 182.167 85.0922 182.46 85.2676 182.89C85.293 182.989 85.3276 183.124 85.3745 183.308C85.4981 183.793 85.6154 184.276 85.7129 184.768C86.5652 189.063 87.1576 193.43 87.8695 197.753C88.3589 200.724 92.0085 202.657 94.6457 201.767C97.7153 200.73 99.0173 197.881 98.493 194.698Z" fill="#E6E6E6"/>
<path d="M145.826 205.839C143.512 205.845 141.291 204.931 139.649 203.298C138.007 201.665 137.078 199.447 137.067 197.129V190.833C130.488 191.571 107.961 191.4 101.503 190.36V196.877C101.486 199.193 100.555 201.408 98.9147 203.04C97.274 204.672 95.0561 205.587 92.7445 205.587C90.4329 205.587 88.215 204.672 86.5744 203.04C84.9337 201.408 84.0033 199.193 83.986 196.877V184.082C75.2398 179.213 67.9486 172.095 62.8648 163.46C57.7811 154.826 55.089 144.989 55.0664 134.964C55.0664 117.775 62.8413 101.74 76.3976 90.9703C85.2117 83.9444 95.9209 79.7191 107.15 78.8369C108.674 78.7172 110.207 78.6566 111.707 78.6566C116.993 78.6566 140.84 79.4746 146.823 81.1994L160.466 67.6351C160.667 67.433 160.923 67.2953 161.202 67.2396C161.481 67.1839 161.77 67.2127 162.033 67.3223C162.297 67.4278 162.524 67.6109 162.683 67.8478C162.842 68.0846 162.925 68.364 162.923 68.6493V70.8059L165.579 68.1697C165.779 67.9674 166.035 67.8295 166.314 67.7737C166.593 67.7179 166.882 67.7467 167.144 67.8564C167.409 67.9619 167.636 68.145 167.795 68.382C167.954 68.6189 168.038 68.8984 168.035 69.1839V93.2843C174.881 99.4681 180.099 107.249 183.226 115.936C186.353 124.624 187.293 133.95 185.963 143.088C184.633 152.227 181.073 160.896 175.6 168.326C170.126 175.757 162.908 181.72 154.584 185.687V197.129C154.573 199.447 153.644 201.665 152.002 203.298C150.36 204.931 148.139 205.845 145.826 205.839ZM137.756 190.05V197.129C137.773 199.262 138.631 201.302 140.142 202.804C141.654 204.306 143.697 205.149 145.826 205.149C147.955 205.149 149.997 204.306 151.509 202.804C153.02 201.302 153.878 199.262 153.896 197.129V185.251L154.092 185.157C163.432 180.717 171.36 173.77 176.997 165.087C184.181 154.008 187.168 140.718 185.419 127.622C183.67 114.527 177.299 102.492 167.461 93.6949L167.347 93.592V69.1839C167.349 69.0356 167.306 68.8901 167.224 68.767C167.141 68.6439 167.023 68.5491 166.885 68.4955C166.748 68.4367 166.596 68.4208 166.45 68.45C166.303 68.4791 166.169 68.5518 166.065 68.6587L162.234 72.4603V68.6493C162.237 68.501 162.194 68.3555 162.111 68.2324C162.028 68.1093 161.91 68.0145 161.772 67.9609C161.635 67.9022 161.483 67.8865 161.336 67.9158C161.19 67.9452 161.055 68.0181 160.951 68.1252L147.016 81.98L146.818 81.9178C141.255 80.1735 117.033 79.3465 111.707 79.3465C110.225 79.3465 108.71 79.4064 107.204 79.5248C96.1114 80.3962 85.5324 84.5702 76.8254 91.5108C63.4348 102.149 55.7549 117.987 55.7549 134.964C55.7778 144.9 58.4555 154.649 63.5098 163.198C68.5642 171.746 75.8108 178.783 84.4969 183.577L84.6745 183.676V196.877C84.6923 199.01 85.5503 201.049 87.0618 202.551C88.5733 204.053 90.6158 204.896 92.7445 204.896C94.8732 204.896 96.9157 204.053 98.4272 202.551C99.9387 201.049 100.797 199.01 100.815 196.877V189.534L101.222 189.611C107.026 190.705 131.461 190.878 137.367 190.101L137.756 190.05Z" fill="#3F3D56"/>
<path d="M99.1534 41.0906L61.0277 52.5708C59.8151 52.9374 58.7973 53.7713 58.1979 54.8894C57.5985 56.0074 57.4666 57.3182 57.8311 58.5336C58.1956 59.7491 59.0268 60.7698 60.142 61.3716C61.2571 61.9734 62.5651 62.1071 63.7786 61.7432L97.1427 51.6946L97.8417 51.4842C97.9831 47.8754 98.9602 44.3491 100.696 41.1837C100.478 41.0856 100.245 41.0249 100.007 41.0044C99.7197 40.9765 99.4296 41.0058 99.1534 41.0906Z" fill="#439F6E"/>
<path d="M63.1159 64.1909C62.6098 64.1897 62.1169 64.0291 61.7068 63.7319C61.2968 63.4347 60.9903 63.0159 60.8307 62.5347L58.4466 55.3264C58.347 55.0254 58.3076 54.7077 58.3306 54.3914C58.3536 54.0751 58.4385 53.7665 58.5806 53.4831C58.7226 53.1997 58.919 52.9471 59.1585 52.7398C59.398 52.5325 59.6759 52.3744 59.9763 52.2747L91.0067 41.9708C91.3071 41.871 91.6242 41.8315 91.9398 41.8545C92.2555 41.8775 92.5635 41.9626 92.8463 42.1049C93.1292 42.2472 93.3812 42.4439 93.5882 42.6838C93.7951 42.9237 93.9529 43.2021 94.0525 43.5031L96.4365 50.7113C96.6349 51.3042 96.5951 51.9511 96.3257 52.5151C96.0562 53.0791 95.5782 53.5159 94.9929 53.7329C94.9643 53.7436 94.9353 53.7538 94.9061 53.7634L63.8764 64.0669C63.6312 64.1488 63.3744 64.1907 63.1159 64.1909Z" fill="#2F2E41"/>
<path d="M121.232 28.2891C114.97 28.2915 108.953 30.7356 104.457 35.104C99.9613 39.4724 97.3381 45.4223 97.1431 51.6944C97.1362 51.9393 97.1328 52.1877 97.1328 52.4361C97.1328 57.2119 98.5462 61.8805 101.194 65.8514C103.842 69.8224 107.606 72.9174 112.01 74.745C116.414 76.5726 121.259 77.0508 125.934 76.1191C130.609 75.1874 134.903 72.8876 138.273 69.5106C141.644 66.1336 143.939 61.831 144.869 57.1469C145.799 52.4629 145.322 47.6077 143.498 43.1954C141.674 38.7831 138.585 35.0119 134.621 32.3586C130.658 29.7053 125.999 28.2891 121.232 28.2891ZM121.232 75.8932C115.025 75.8867 109.074 73.4133 104.685 69.0156C100.296 64.6179 97.8278 58.6553 97.8214 52.4361C97.8214 52.1153 97.8283 51.7979 97.842 51.484C98.0285 46.8891 99.5588 42.4505 102.243 38.72C104.927 34.9896 108.646 32.1319 112.938 30.5024C117.229 28.8728 121.905 28.5433 126.382 29.5547C130.859 30.5662 134.941 32.874 138.12 36.1912C141.299 39.5084 143.434 43.6886 144.261 48.2121C145.087 52.7356 144.569 57.4028 142.769 61.6333C140.97 65.8638 137.969 69.471 134.14 72.0063C130.311 74.5417 125.822 75.8933 121.232 75.8932Z" fill="#3F3D56"/>
<path d="M141.543 52.4364C141.543 57.8342 139.403 63.0109 135.594 66.8278C131.784 70.6446 126.618 72.7889 121.231 72.7889C115.843 72.7889 110.677 70.6446 106.867 66.8278C103.058 63.0109 100.918 57.8342 100.918 52.4364C100.918 51.7913 100.949 51.1566 101.007 50.5288C101.497 45.3193 103.97 40.4989 107.913 37.0684C111.857 33.6379 116.967 31.8609 122.184 32.1064C127.4 32.3519 132.322 34.601 135.927 38.3867C139.532 42.1724 141.543 47.2039 141.543 52.4364Z" fill="#E6E6E6"/>
<path d="M127.28 53.7883C126.787 53.1397 126.14 52.626 125.397 52.2947C124.48 51.9076 123.534 51.5961 122.567 51.3633V45.8233C124.053 46.0478 125.447 46.6847 126.591 47.6619L127.714 45.2644C127.068 44.6882 126.327 44.2294 125.524 43.9087C124.634 43.5476 123.699 43.3074 122.746 43.1947V40.3867H120.146V43.2223C119.143 43.3352 118.174 43.661 117.306 44.1778C116.522 44.643 115.861 45.2916 115.381 46.0682C114.923 46.826 114.686 47.6971 114.696 48.5829C114.652 49.5429 114.929 50.4902 115.485 51.2736C115.996 51.9518 116.671 52.4884 117.447 52.8328C118.378 53.2312 119.341 53.5508 120.325 53.7883V59.0972C118.571 58.9646 116.9 58.2964 115.536 57.1827L114.414 59.5836C115.176 60.2151 116.043 60.7078 116.975 61.0393C117.997 61.4056 119.064 61.6284 120.146 61.7016V64.4854H122.746V61.6499C124.189 61.4918 125.543 60.8698 126.605 59.8768C127.072 59.4275 127.442 58.8859 127.69 58.2862C127.937 57.6864 128.058 57.0417 128.044 56.3928C128.087 55.4634 127.818 54.5463 127.28 53.7883ZM120.325 50.7768C119.692 50.5844 119.103 50.2679 118.594 49.8455C118.391 49.6653 118.232 49.4426 118.126 49.1933C118.02 48.944 117.97 48.6743 117.981 48.4035C117.962 47.7891 118.187 47.1924 118.607 46.7443C119.073 46.2742 119.674 45.9618 120.325 45.8508V50.7768ZM124.198 58.1175C123.759 58.5689 123.187 58.8674 122.567 58.9696V54.4023C123.16 54.5619 123.715 54.84 124.198 55.2199C124.382 55.3767 124.527 55.5729 124.624 55.7939C124.722 56.0148 124.768 56.2549 124.76 56.4962C124.784 57.0883 124.583 57.6674 124.198 58.1175Z" fill="#439F6E"/>
<path d="M64.2255 93.4049C63.6933 93.404 63.1762 93.2272 62.7545 92.9019C62.3328 92.5766 62.0299 92.121 61.893 91.6057L60.595 86.6831C60.4325 86.0644 60.5216 85.4064 60.8427 84.8534C61.1638 84.3004 61.6907 83.8976 62.3078 83.7333L103.257 72.8914C103.875 72.7298 104.531 72.8201 105.083 73.1424C105.635 73.4646 106.037 73.9927 106.201 74.6111L107.3 78.7816L107.094 78.7976C96.5921 79.6158 86.5437 83.431 78.1377 89.7918L78.078 89.8208L64.8369 93.3254C64.6374 93.3782 64.4319 93.4049 64.2255 93.4049Z" fill="#2F2E41"/>
<path d="M57.4419 117.72C52.6384 117.009 48.0443 115.268 43.9729 112.617C41.9558 111.304 40.0886 109.774 38.4045 108.054C36.7424 106.355 35.1523 104.424 34.329 102.162C33.5369 100.069 33.5777 97.7512 34.4431 95.6875C35.2966 93.6365 36.927 92.0082 38.9768 91.1598C41.0389 90.3358 43.5303 90.2477 45.5372 91.15C46.4935 91.57 47.3211 92.2375 47.9349 93.0838C48.2202 93.474 48.4315 93.9134 48.5581 94.3802C48.6757 94.8032 48.6864 95.2488 48.5893 95.677C48.4716 96.1044 48.264 96.5017 47.9806 96.8422C47.6971 97.1826 47.3443 97.4585 46.9457 97.6511C46.0685 98.102 45.1181 98.3925 44.1391 98.5088C43.1544 98.6433 41.7399 98.7657 40.9483 97.9738C40.7853 97.8171 40.6572 97.6278 40.5721 97.4181C40.5126 97.2576 40.4923 97.0851 40.5128 96.9151C40.5012 96.9901 40.5605 96.7522 40.5572 96.7617C40.5446 96.7969 40.4904 96.8826 40.5675 96.7509C40.5916 96.7075 40.6184 96.6656 40.6478 96.6257C40.6216 96.6596 40.5641 96.7161 40.6667 96.6191C40.7515 96.5261 40.8605 96.4586 40.9815 96.4244C41.0292 96.4105 41.0775 96.3994 41.1253 96.3863C41.2467 96.3531 41.0042 96.3881 41.1285 96.3841C41.1764 96.3826 41.225 96.3838 41.2727 96.3816C41.3946 96.3761 41.1525 96.3483 41.2693 96.3777C41.3147 96.3892 41.3596 96.4003 41.4043 96.4144C41.5014 96.4451 41.3355 96.343 41.4013 96.4194C41.4784 96.5089 41.3203 96.3324 41.408 96.419C41.4516 96.4619 41.4927 96.5074 41.5311 96.555C41.6831 96.7054 41.8881 96.7897 42.1018 96.7897C42.3154 96.7897 42.5204 96.7054 42.6724 96.555C42.8193 96.401 42.9012 96.1962 42.9012 95.9833C42.9012 95.7703 42.8193 95.5655 42.6724 95.4115C41.8766 94.4231 40.3048 94.6673 39.4998 95.5027C38.4731 96.5681 38.8797 98.2565 39.8783 99.1861C41.0088 100.239 42.61 100.312 44.0642 100.135C45.2932 100.017 46.4908 99.6781 47.5997 99.1341C48.7014 98.5917 49.5631 97.6589 50.0179 96.5165C50.2232 95.9068 50.297 95.2604 50.2343 94.62C50.1716 93.9796 49.9738 93.3598 49.6542 92.8017C48.3703 90.3831 45.7117 89.1432 43.0838 88.9284C41.7309 88.8222 40.3703 88.9859 39.081 89.41C37.7916 89.8341 36.5989 90.5102 35.572 91.3992C33.5928 93.1846 32.374 95.6638 32.1677 98.3243C31.9383 101.083 33.0064 103.761 34.5636 105.987C36.1939 108.249 38.1393 110.265 40.3405 111.973C44.6438 115.416 49.6915 117.801 55.0798 118.938C55.7207 119.071 56.3651 119.185 57.0128 119.279C57.219 119.329 57.4364 119.299 57.6208 119.194C57.8052 119.089 57.9428 118.917 58.0056 118.714C58.0609 118.508 58.0328 118.287 57.9273 118.101C57.8218 117.915 57.6474 117.778 57.4419 117.72Z" fill="#3F3D56"/>
<path d="M134.349 82.5765C127.312 82.477 120.296 82.6559 113.302 83.1134C110.912 83.2697 108.844 84.1163 108.844 85.5391C108.844 86.7287 110.896 88.1224 113.302 87.9649C120.292 87.5075 127.308 87.3285 134.349 87.428C140.09 87.5092 140.086 82.6576 134.349 82.5765Z" fill="#CCCCCC"/>
<path d="M123.948 87.1879C123.187 87.1879 105.32 87.1595 105.32 84.6867C105.32 82.214 123.187 82.1855 123.948 82.1855C124.708 82.1855 142.575 82.214 142.575 84.6867C142.575 87.1595 124.708 87.1879 123.948 87.1879ZM106.019 84.6867C106.508 85.4364 113.075 86.498 123.948 86.498C134.82 86.498 141.388 85.4364 141.877 84.6867C141.388 83.9371 134.82 82.8755 123.948 82.8755C113.075 82.8755 106.508 83.9371 106.019 84.6867Z" fill="#3F3D56"/>
<path d="M180.633 152.195C184.588 152.085 189.511 151.948 193.303 149.172C194.432 148.312 195.36 147.214 196.021 145.957C196.683 144.699 197.062 143.312 197.131 141.892C197.209 139.7 196.418 137.787 194.906 136.506C192.925 134.829 190.033 134.436 186.916 135.353L190.145 111.707L187.775 111.382L183.978 139.181L185.958 138.271C188.253 137.216 191.403 136.679 193.361 138.337C193.842 138.77 194.216 139.309 194.456 139.911C194.695 140.513 194.792 141.162 194.74 141.808C194.682 142.864 194.398 143.896 193.906 144.833C193.415 145.769 192.727 146.589 191.891 147.236C188.94 149.395 185.017 149.674 180.566 149.799L180.633 152.195Z" fill="#3F3D56"/>
<path d="M174.079 113.747H161.191V116.144H174.079V113.747Z" fill="#3F3D56"/>
<path d="M70.0555 104.432C69.4819 104.43 68.9277 104.224 68.4921 103.849C68.0566 103.475 67.7682 102.958 67.6786 102.39L66.892 97.3605C66.7937 96.7279 66.95 96.082 67.3264 95.5647C67.7028 95.0474 68.2687 94.7008 68.8999 94.601L110.741 88.0322C111.372 87.9337 112.017 88.0903 112.533 88.4675C113.049 88.8446 113.395 89.4116 113.495 90.044L114.281 95.0741C114.38 95.7067 114.223 96.3526 113.847 96.8699C113.471 97.3872 112.905 97.7338 112.273 97.8336L70.4326 104.402C70.3078 104.422 70.1818 104.432 70.0555 104.432Z" fill="#2F2E41"/>
<path d="M52.7419 45.4845C62.4391 45.4845 70.3002 37.6079 70.3002 27.8917C70.3002 18.1754 62.4391 10.2988 52.7419 10.2988C43.0447 10.2988 35.1836 18.1754 35.1836 27.8917C35.1836 37.6079 43.0447 45.4845 52.7419 45.4845Z" fill="#439F6E"/>
<path d="M62.6795 32.4434C63.2406 32.2467 63.7533 31.932 64.1829 31.5202C64.4672 31.2267 64.6839 30.8744 64.818 30.4881C64.9521 30.1018 65.0003 29.6908 64.9592 29.2839C64.9353 28.9938 64.8448 28.7133 64.6948 28.4641C64.5447 28.2149 64.3392 28.0039 64.0943 27.8474C63.4589 27.4559 62.6192 27.4707 61.7715 27.8644L61.6736 20.9971L60.9852 21.0069L61.1002 29.0802L61.6243 28.7358C62.232 28.3371 63.1053 28.0479 63.7335 28.4351C63.8889 28.5376 64.0186 28.6747 64.1126 28.8356C64.2065 28.9965 64.2621 29.1769 64.2751 29.3629C64.304 29.6661 64.2675 29.9719 64.1679 30.2596C64.0683 30.5474 63.908 30.8102 63.698 31.0303C62.9516 31.7724 61.8468 32.021 60.5859 32.2484L60.708 32.9273C61.3782 32.8253 62.0381 32.6634 62.6795 32.4434Z" fill="#2F2E41"/>
<path d="M68.7643 20.5149L65.0977 21.0713L65.2007 21.7533L68.8674 21.197L68.7643 20.5149Z" fill="#2F2E41"/>
<path d="M57.1901 22.2708L53.5234 22.8271L53.6265 23.5092L57.2932 22.9528L57.1901 22.2708Z" fill="#2F2E41"/>
<path d="M64.3438 104.124C63.7123 104.123 63.0963 103.929 62.5775 103.568C62.0588 103.207 61.662 102.697 61.44 102.104L49.334 69.6201C47.8544 65.6361 48.0124 61.2267 49.7734 57.3593C51.5344 53.4918 54.7546 50.4823 58.7274 48.9908L68.571 45.308C68.9516 45.1646 69.3568 45.0981 69.7632 45.1122C70.1696 45.1263 70.5692 45.2209 70.939 45.3904C71.3079 45.5555 71.6402 45.7926 71.9166 46.088C72.1929 46.3833 72.4078 46.7308 72.5486 47.1103L94.9738 89.5344C95.1194 89.917 95.1881 90.3246 95.1758 90.7339C95.1636 91.1431 95.0707 91.5459 94.9025 91.919C94.7343 92.2921 94.4941 92.6283 94.1958 92.908C93.8974 93.1878 93.5468 93.4057 93.1641 93.5491L65.4267 103.927C65.0804 104.057 64.7136 104.124 64.3438 104.124Z" fill="#2F2E41"/>
<path d="M65.5859 46.4254L87.8364 76.2385L72.7805 46.7383C72.6562 46.3941 72.4653 46.0778 72.219 45.8075C71.9726 45.5372 71.6755 45.3181 71.3446 45.1629C71.0138 45.0077 70.6556 44.9193 70.2907 44.9027C69.9257 44.8862 69.561 44.9419 69.2175 45.0666L65.5859 46.4254Z" fill="#E6E6E6"/>
<path d="M100.817 69.0664L61.0885 66.5023C60.4623 66.4618 59.8501 66.2982 59.287 66.0208C58.7239 65.7433 58.2208 65.3575 57.8066 64.8852C57.3923 64.413 57.0749 63.8636 56.8725 63.2685C56.6701 62.6733 56.5867 62.044 56.6271 61.4166C56.6674 60.7892 56.8307 60.1758 57.1076 59.6116C57.3845 59.0474 57.7696 58.5433 58.2409 58.1282C58.7122 57.7131 59.2605 57.3951 59.8545 57.1924C60.4485 56.9896 61.0765 56.906 61.7027 56.9464L101.431 59.5104C101.724 59.5293 102.011 59.6059 102.275 59.7358C102.538 59.8657 102.774 60.0464 102.968 60.2675C103.162 60.4887 103.311 60.746 103.406 61.0247C103.5 61.3034 103.539 61.5981 103.52 61.892L103.194 66.9729C103.156 67.5663 102.884 68.1203 102.438 68.5129C101.992 68.9055 101.409 69.1046 100.817 69.0664Z" fill="#439F6E"/>
<path d="M90.1997 70.7103C90.1472 70.7103 90.0946 70.7086 90.0419 70.7053L57.4192 68.5998C57.1033 68.5795 56.7946 68.497 56.5106 68.3571C56.2266 68.2172 55.9728 68.0226 55.7639 67.7844C55.555 67.5462 55.3949 67.2692 55.2928 66.969C55.1907 66.6688 55.1487 66.3515 55.1691 66.035L55.7269 57.3565C55.7473 57.0401 55.8296 56.7307 55.9693 56.4462C56.109 56.1616 56.3032 55.9074 56.5409 55.6981C56.7786 55.4887 57.0552 55.3284 57.3548 55.2261C57.6544 55.1239 57.9711 55.0818 58.287 55.1022L90.9096 57.2075C91.5471 57.2493 92.1421 57.5428 92.5639 58.0237C92.9857 58.5045 93.1999 59.1333 93.1596 59.7722L92.6018 68.4509C92.5711 68.9159 92.4071 69.3622 92.1294 69.7361C91.8518 70.11 91.4724 70.3957 91.0367 70.5589C90.769 70.6592 90.4855 70.7105 90.1997 70.7103Z" fill="#2F2E41"/>
<path d="M52.5381 16.1925C54.8479 14.202 58.0199 15.9826 60.6688 15.6709C63.2031 15.3727 65.2043 13.0949 65.7155 10.6751C66.3119 7.85196 64.8494 5.02359 62.6939 3.26341C60.333 1.33559 57.2019 0.782161 54.2348 1.13882C50.8341 1.5476 47.724 3.1359 44.9333 5.05703C42.2397 6.85396 39.7625 8.95714 37.5514 11.3246C35.5714 13.5157 33.8938 16.1274 33.3582 19.0757C32.8713 21.7552 33.2431 24.7244 34.8239 26.9943C35.6622 28.1577 36.7856 29.085 38.0857 29.6868C39.4413 30.3537 40.8873 30.8305 42.2006 31.5846C44.1863 32.7248 46.1163 35.089 45.4942 37.5493C45.3609 38.0867 45.0977 38.5831 44.7279 38.9946C44.2835 39.4889 43.482 38.8358 43.9276 38.3402C44.71 37.4699 44.6792 36.3091 44.2622 35.27C43.7663 34.0991 42.8883 33.1316 41.7719 32.5261C40.3972 31.7386 38.8794 31.2525 37.4704 30.5352C36.1218 29.8799 34.9512 28.9079 34.0581 27.7018C32.3718 25.3536 31.8673 22.2977 32.2498 19.4707C32.6637 16.4115 34.2324 13.6316 36.1989 11.302C38.339 8.76674 40.9678 6.62073 43.6534 4.69282C46.5351 2.62416 49.7187 0.875257 53.2417 0.242705C56.2955 -0.305619 59.6056 0.0319641 62.276 1.69944C64.7687 3.25592 66.6802 5.93336 66.8703 8.92516C66.9385 10.2864 66.6435 11.6413 66.0157 12.8504C65.3878 14.0595 64.4497 15.0791 63.2979 15.8043C62.1161 16.5129 60.7421 16.8319 59.3697 16.7162C57.9025 16.6221 56.4339 16.1719 54.9574 16.2969C54.2892 16.3375 53.6525 16.5953 53.1437 17.0311C52.639 17.466 52.0375 16.6238 52.5381 16.1925Z" fill="#2F2E41"/>
<path d="M254.589 206H0.408744C0.300229 206 0.196269 205.956 0.119649 205.879C0.043029 205.802 0 205.698 0 205.589C0 205.481 0.043029 205.376 0.119649 205.299C0.196269 205.222 0.300229 205.179 0.408744 205.179H254.589C254.698 205.179 254.802 205.222 254.879 205.299C254.956 205.376 254.999 205.481 254.999 205.589C254.999 205.698 254.956 205.803 254.879 205.88C254.802 205.957 254.698 206 254.589 206Z" fill="#3F3D56"/>
</g>
<defs>
<clipPath id="clip0_399_1279">
<rect width="255" height="206" fill="white"/>
</clipPath>
</defs>
</svg>
