<svg width="374" height="192" viewBox="0 0 374 192" fill="none" xmlns="http://www.w3.org/2000/svg">
<g clip-path="url(#clip0_399_1414)">
<path d="M236.375 107.098H111.324V192H236.375V107.098Z" fill="#192250"/>
<path d="M243.349 97.1665H120.292C119.896 97.1671 119.516 97.3243 119.236 97.6036C118.955 97.883 118.797 98.2616 118.797 98.6567V181.572C118.797 181.768 118.836 181.962 118.911 182.143C118.986 182.323 119.096 182.488 119.235 182.626C119.374 182.764 119.539 182.874 119.72 182.949C119.901 183.024 120.096 183.063 120.292 183.063H243.349C243.546 183.063 243.74 183.024 243.922 182.949C244.103 182.874 244.268 182.764 244.407 182.626C244.546 182.488 244.656 182.323 244.731 182.143C244.806 181.962 244.845 181.768 244.845 181.572V98.6567C244.844 98.2616 244.686 97.883 244.406 97.6036C244.126 97.3243 243.746 97.1671 243.349 97.1665ZM243.848 181.572C243.848 181.638 243.835 181.702 243.81 181.763C243.785 181.823 243.749 181.878 243.702 181.924C243.656 181.97 243.601 182.007 243.54 182.032C243.48 182.057 243.415 182.069 243.349 182.069H120.292C120.227 182.069 120.162 182.057 120.101 182.032C120.041 182.007 119.986 181.97 119.939 181.924C119.893 181.878 119.856 181.823 119.831 181.763C119.806 181.702 119.794 181.638 119.794 181.572V98.6567C119.794 98.525 119.847 98.3988 119.94 98.3056C120.033 98.2125 120.16 98.1601 120.292 98.1599H243.349C243.481 98.1601 243.608 98.2125 243.702 98.3056C243.795 98.3988 243.848 98.525 243.848 98.6567V181.572Z" fill="#3F3D56"/>
<path d="M180.844 155.755H126.001C125.599 155.755 125.273 156.08 125.273 156.48V161.484C125.273 161.885 125.599 162.209 126.001 162.209H180.844C181.245 162.209 181.571 161.885 181.571 161.484V156.48C181.571 156.08 181.245 155.755 180.844 155.755Z" fill="white"/>
<path d="M232.885 150.294H214.952C214.756 150.294 214.562 150.332 214.38 150.407C214.199 150.482 214.034 150.592 213.895 150.73C213.756 150.869 213.646 151.033 213.571 151.214C213.496 151.395 213.457 151.588 213.457 151.784V165.685C213.457 165.881 213.496 166.074 213.571 166.255C213.646 166.436 213.756 166.6 213.895 166.739C214.034 166.877 214.199 166.987 214.38 167.062C214.562 167.137 214.756 167.175 214.952 167.175H232.885C233.081 167.175 233.276 167.137 233.457 167.062C233.638 166.987 233.803 166.877 233.942 166.739C234.081 166.6 234.191 166.436 234.266 166.255C234.341 166.074 234.38 165.881 234.38 165.685V151.784C234.38 151.588 234.341 151.395 234.266 151.214C234.191 151.033 234.081 150.869 233.942 150.73C233.803 150.592 233.638 150.482 233.457 150.407C233.276 150.332 233.081 150.294 232.885 150.294ZM233.383 165.685C233.383 165.817 233.33 165.943 233.237 166.036C233.144 166.129 233.017 166.181 232.885 166.182H214.952C214.82 166.181 214.694 166.129 214.6 166.036C214.507 165.943 214.454 165.817 214.454 165.685V151.784C214.454 151.719 214.466 151.654 214.491 151.594C214.516 151.533 214.553 151.479 214.599 151.432C214.646 151.386 214.701 151.35 214.761 151.325C214.822 151.3 214.887 151.287 214.952 151.287H232.885C232.95 151.287 233.015 151.3 233.076 151.325C233.136 151.35 233.191 151.386 233.238 151.432C233.284 151.479 233.321 151.533 233.346 151.594C233.371 151.654 233.383 151.719 233.383 151.784V165.685Z" fill="white"/>
<path d="M229.306 153.501H218.536C218.134 153.501 217.809 153.826 217.809 154.227V155.297C217.809 155.698 218.134 156.022 218.536 156.022H229.306C229.708 156.022 230.034 155.698 230.034 155.297V154.227C230.034 153.826 229.708 153.501 229.306 153.501Z" fill="white"/>
<path d="M229.306 157.473H218.536C218.134 157.473 217.809 157.798 217.809 158.198V159.269C217.809 159.669 218.134 159.994 218.536 159.994H229.306C229.708 159.994 230.034 159.669 230.034 159.269V158.198C230.034 157.798 229.708 157.473 229.306 157.473Z" fill="white"/>
<path d="M229.306 161.445H218.536C218.134 161.445 217.809 161.77 217.809 162.17V163.241C217.809 163.641 218.134 163.966 218.536 163.966H229.306C229.708 163.966 230.034 163.641 230.034 163.241V162.17C230.034 161.77 229.708 161.445 229.306 161.445Z" fill="white"/>
<path d="M151.949 103.125H127.497C127.095 103.125 126.77 103.45 126.77 103.851V113.323C126.77 113.724 127.095 114.049 127.497 114.049H151.949C152.351 114.049 152.676 113.724 152.676 113.323V103.851C152.676 103.45 152.351 103.125 151.949 103.125Z" fill="white"/>
<path d="M141.716 108.587C141.716 110.506 140.824 112.062 139.723 112.062C138.623 112.062 137.73 110.506 137.73 108.587C137.73 106.667 139.723 105.111 139.723 105.111C139.723 105.111 141.716 106.667 141.716 108.587Z" fill="#192250"/>
<path d="M328.158 58.6768H327.43V139.752H244.844V140.477H328.158V58.6768Z" fill="#3F3D56"/>
<path d="M111.326 140.477H28.0117V58.6768H28.7394V139.752H111.326V140.477Z" fill="#3F3D56"/>
<path d="M373.768 13.7086H373.301V12.8953H373.651C373.713 12.8953 373.772 12.8709 373.816 12.8273C373.86 12.7837 373.884 12.7246 373.884 12.663V8.48072C373.884 8.4191 373.86 8.36 373.816 8.31643C373.772 8.27286 373.713 8.24838 373.651 8.24838H373.301V5.87319C373.301 5.20871 373.17 4.55072 372.915 3.93682C372.66 3.32291 372.286 2.7651 371.814 2.29523C371.343 1.82537 370.783 1.45266 370.167 1.19837C369.551 0.944089 368.891 0.813216 368.224 0.813223H367.706V0.232348C367.706 0.170725 367.681 0.111627 367.638 0.0680535C367.594 0.0244799 367.535 9.61564e-07 367.473 0H363.276C363.214 9.61564e-07 363.155 0.0244799 363.111 0.0680535C363.068 0.111627 363.043 0.170725 363.043 0.232348V0.813223H287.218C286.551 0.813216 285.891 0.944089 285.275 1.19837C284.659 1.45266 284.099 1.82537 283.628 2.29523C283.156 2.7651 282.782 3.32291 282.527 3.93682C282.272 4.55072 282.141 5.20871 282.141 5.87319V113.554C282.141 114.218 282.272 114.876 282.527 115.49C282.782 116.104 283.156 116.662 283.628 117.132C284.099 117.602 284.659 117.974 285.275 118.229C285.891 118.483 286.551 118.614 287.218 118.614H368.224C368.891 118.614 369.551 118.483 370.167 118.229C370.783 117.974 371.343 117.602 371.814 117.132C372.286 116.662 372.66 116.104 372.915 115.49C373.17 114.876 373.302 114.218 373.302 113.554V18.3555H373.768C373.83 18.3555 373.889 18.331 373.933 18.2875C373.976 18.2439 374.001 18.1848 374.001 18.1232V13.9409C374.001 13.9104 373.995 13.8802 373.983 13.852C373.971 13.8238 373.954 13.7982 373.933 13.7766C373.911 13.755 373.885 13.7379 373.857 13.7262C373.829 13.7146 373.798 13.7086 373.768 13.7086Z" fill="#3F3D56"/>
<path d="M369.111 4.12305H287.029C286.646 4.12305 286.336 4.43225 286.336 4.81367V113.8C286.336 114.182 286.646 114.491 287.029 114.491H369.111C369.494 114.491 369.804 114.182 369.804 113.8V4.81367C369.804 4.43225 369.494 4.12305 369.111 4.12305Z" fill="white"/>
<path d="M332.075 58.2134H319.212C318.81 58.2134 318.484 58.538 318.484 58.9385V61.7169C318.484 62.1173 318.81 62.442 319.212 62.442H332.075C332.477 62.442 332.803 62.1173 332.803 61.7169V58.9385C332.803 58.538 332.477 58.2134 332.075 58.2134Z" fill="#3F3D56"/>
<path d="M349.388 25.2905H301.903C301.502 25.2905 301.176 25.6152 301.176 26.0157V26.3777C301.176 26.7781 301.502 27.1028 301.903 27.1028H349.388C349.789 27.1028 350.115 26.7781 350.115 26.3777V26.0157C350.115 25.6152 349.789 25.2905 349.388 25.2905Z" fill="#3F3D56"/>
<path d="M349.388 31.0293H301.903C301.502 31.0293 301.176 31.354 301.176 31.7544V32.1164C301.176 32.5169 301.502 32.8416 301.903 32.8416H349.388C349.789 32.8416 350.115 32.5169 350.115 32.1164V31.7544C350.115 31.354 349.789 31.0293 349.388 31.0293Z" fill="#3F3D56"/>
<path d="M349.388 36.7681H301.903C301.502 36.7681 301.176 37.0927 301.176 37.4932V37.8552C301.176 38.2557 301.502 38.5803 301.903 38.5803H349.388C349.789 38.5803 350.115 38.2557 350.115 37.8552V37.4932C350.115 37.0927 349.789 36.7681 349.388 36.7681Z" fill="#3F3D56"/>
<path d="M349.388 42.5068H301.903C301.502 42.5068 301.176 42.8315 301.176 43.232V43.594C301.176 43.9944 301.502 44.3191 301.903 44.3191H349.388C349.789 44.3191 350.115 43.9944 350.115 43.594V43.232C350.115 42.8315 349.789 42.5068 349.388 42.5068Z" fill="#3F3D56"/>
<path d="M349.388 48.2456H301.903C301.502 48.2456 301.176 48.5703 301.176 48.9707V49.3327C301.176 49.7332 301.502 50.0579 301.903 50.0579H349.388C349.789 50.0579 350.115 49.7332 350.115 49.3327V48.9707C350.115 48.5703 349.789 48.2456 349.388 48.2456Z" fill="#3F3D56"/>
<path d="M323.911 110.133C332.306 110.133 339.111 103.351 339.111 94.9849C339.111 86.6189 332.306 79.8369 323.911 79.8369C315.516 79.8369 308.711 86.6189 308.711 94.9849C308.711 103.351 315.516 110.133 323.911 110.133Z" fill="#192250"/>
<path d="M328.393 106.669C324.624 106.669 320.94 105.555 317.806 103.468C314.672 101.382 312.229 98.4154 310.787 94.945C309.344 91.4747 308.967 87.656 309.702 83.9719C310.437 80.2878 312.253 76.9038 314.918 74.2477C317.583 71.5916 320.979 69.7828 324.675 69.05C328.372 68.3172 332.204 68.6933 335.686 70.1307C339.169 71.5682 342.145 74.0025 344.239 77.1257C346.333 80.2489 347.451 83.9208 347.451 87.6771C347.445 92.7124 345.435 97.5397 341.863 101.1C338.29 104.661 333.446 106.663 328.393 106.669ZM328.393 69.3757C324.761 69.3757 321.211 70.4491 318.191 72.46C315.171 74.471 312.817 77.3293 311.427 80.6735C310.037 84.0176 309.673 87.6974 310.382 91.2475C311.09 94.7977 312.839 98.0587 315.408 100.618C317.976 103.178 321.248 104.921 324.811 105.627C328.373 106.333 332.065 105.971 335.421 104.585C338.777 103.2 341.645 100.854 343.663 97.8448C345.681 94.8352 346.758 91.2968 346.758 87.6771C346.752 82.8249 344.816 78.1731 341.373 74.7421C337.93 71.3111 333.262 69.3811 328.393 69.3757Z" fill="#3F3D56"/>
<path d="M56.5705 31.874H55.9471V14.8556C55.9471 13.5621 55.6915 12.2813 55.1948 11.0863C54.6981 9.89125 53.97 8.80542 53.0522 7.89078C52.1345 6.97615 51.0449 6.25062 49.8457 5.75562C48.6466 5.26062 47.3614 5.00586 46.0634 5.00586H9.88368C8.58574 5.00586 7.3005 5.26062 6.10136 5.75562C4.90222 6.25062 3.81265 6.97615 2.89486 7.89078C1.97708 8.80542 1.24905 9.89125 0.75235 11.0863C0.255649 12.2813 -1.43331e-06 13.5621 0 14.8556V108.22C-1.43332e-06 109.513 0.255648 110.794 0.75235 111.989C1.24905 113.184 1.97708 114.27 2.89487 115.185C3.81265 116.099 4.90222 116.825 6.10137 117.32C7.30051 117.815 8.58575 118.069 9.88369 118.069H46.0634C47.3614 118.069 48.6466 117.815 49.8458 117.32C51.0449 116.825 52.1345 116.099 53.0523 115.185C53.9701 114.27 54.6981 113.184 55.1948 111.989C55.6915 110.794 55.9471 109.513 55.9471 108.22V43.9879H56.5705V31.874Z" fill="#3F3D56"/>
<path d="M53.8408 15.4347V108.663C53.8412 110.613 53.0638 112.485 51.6798 113.864C50.2958 115.244 48.4185 116.019 46.4609 116.02H10.1065C8.14886 116.019 6.27156 115.244 4.88756 113.864C3.50356 112.485 2.72622 110.613 2.72656 108.663V15.4347C2.72677 13.4842 3.50436 11.6136 4.88832 10.2344C6.27228 8.8552 8.14927 8.08028 10.1065 8.08008H14.5171C14.3001 8.61068 14.2173 9.18633 14.276 9.75633C14.3348 10.3263 14.5333 10.8732 14.8541 11.3487C15.1749 11.8242 15.6081 12.2139 16.1156 12.4832C16.623 12.7526 17.1892 12.8935 17.7642 12.8935H38.4913C39.0663 12.8935 39.6325 12.7526 40.14 12.4833C40.6474 12.2139 41.0806 11.8243 41.4014 11.3487C41.7222 10.8732 41.9207 10.3263 41.9795 9.75634C42.0383 9.18633 41.9555 8.61068 41.7384 8.08008H46.4609C48.4181 8.08029 50.2951 8.85521 51.6791 10.2344C53.063 11.6136 53.8406 13.4842 53.8408 15.4347Z" fill="white"/>
<path d="M32.4252 63.0044H24.1417C23.7398 63.0044 23.4141 63.329 23.4141 63.7295V65.1554C23.4141 65.5558 23.7398 65.8805 24.1417 65.8805H32.4252C32.8271 65.8805 33.1528 65.5558 33.1528 65.1554V63.7295C33.1528 63.329 32.8271 63.0044 32.4252 63.0044Z" fill="#3F3D56"/>
<path d="M44.3085 40.6123H12.2591C11.9175 40.6123 11.6406 40.8882 11.6406 41.2286C11.6406 41.569 11.9175 41.8449 12.2591 41.8449H44.3085C44.65 41.8449 44.9269 41.569 44.9269 41.2286C44.9269 40.8882 44.65 40.6123 44.3085 40.6123Z" fill="#3F3D56"/>
<path d="M44.3085 44.5151H12.2591C11.9175 44.5151 11.6406 44.7911 11.6406 45.1314C11.6406 45.4718 11.9175 45.7478 12.2591 45.7478H44.3085C44.65 45.7478 44.9269 45.4718 44.9269 45.1314C44.9269 44.7911 44.65 44.5151 44.3085 44.5151Z" fill="#3F3D56"/>
<path d="M44.3085 48.4185H12.2591C11.9175 48.4185 11.6406 48.6944 11.6406 49.0348C11.6406 49.3751 11.9175 49.6511 12.2591 49.6511H44.3085C44.65 49.6511 44.9269 49.3751 44.9269 49.0348C44.9269 48.6944 44.65 48.4185 44.3085 48.4185Z" fill="#3F3D56"/>
<path d="M44.3085 52.3218H12.2591C11.9175 52.3218 11.6406 52.5977 11.6406 52.9381C11.6406 53.2785 11.9175 53.5544 12.2591 53.5544H44.3085C44.65 53.5544 44.9269 53.2785 44.9269 52.9381C44.9269 52.5977 44.65 52.3218 44.3085 52.3218Z" fill="#3F3D56"/>
<path d="M44.3085 56.2251H12.2591C11.9175 56.2251 11.6406 56.501 11.6406 56.8414C11.6406 57.1818 11.9175 57.4577 12.2591 57.4577H44.3085C44.65 57.4577 44.9269 57.1818 44.9269 56.8414C44.9269 56.501 44.65 56.2251 44.3085 56.2251Z" fill="#3F3D56"/>
<path d="M25.4201 103.393C31.2095 103.393 35.9027 98.7157 35.9027 92.9461C35.9027 87.1766 31.2095 82.4995 25.4201 82.4995C19.6307 82.4995 14.9375 87.1766 14.9375 92.9461C14.9375 98.7157 19.6307 103.393 25.4201 103.393Z" fill="#192250"/>
<path d="M28.5099 101.004C25.9105 101.004 23.3695 100.236 21.2082 98.7965C19.0469 97.3574 17.3624 95.3118 16.3676 92.9185C15.3729 90.5252 15.1126 87.8917 15.6197 85.351C16.1268 82.8103 17.3786 80.4766 19.2166 78.6448C21.0546 76.8131 23.3964 75.5656 25.9459 75.0603C28.4953 74.5549 31.1379 74.8143 33.5394 75.8056C35.9409 76.7969 37.9935 78.4757 39.4377 80.6296C40.8818 82.7835 41.6526 85.3158 41.6526 87.9062C41.6487 91.3787 40.2628 94.7079 37.7989 97.1633C35.335 99.6188 31.9944 101 28.5099 101.004ZM28.5099 75.2849C26.0051 75.2849 23.5565 76.0251 21.4737 77.412C19.391 78.7988 17.7677 80.77 16.8092 83.0763C15.8506 85.3825 15.5998 87.9202 16.0885 90.3686C16.5771 92.8169 17.7834 95.0658 19.5546 96.8309C21.3258 98.596 23.5824 99.7981 26.0391 100.285C28.4959 100.772 31.0423 100.522 33.3565 99.5669C35.6707 98.6116 37.6487 96.9939 39.0403 94.9183C40.4319 92.8427 41.1747 90.4025 41.1747 87.9062C41.1709 84.56 39.8354 81.3519 37.4611 78.9857C35.0868 76.6196 31.8677 75.2886 28.5099 75.2849Z" fill="#3F3D56"/>
<path d="M63.8509 136.032H53.6641V146.184H63.8509V136.032Z" fill="#D0CDE1"/>
<path d="M70.0377 140.382H57.668V128.055H70.0377V140.382ZM58.2058 139.847H69.4999V128.591H58.2058V139.847Z" fill="#3F3D56"/>
<path d="M291.964 136.032H281.777V146.184H291.964V136.032Z" fill="#D0CDE1"/>
<path d="M298.147 140.382H285.777V128.055H298.147V140.382ZM286.315 139.847H297.609V128.591H286.315V139.847Z" fill="#3F3D56"/>
</g>
<defs>
<clipPath id="clip0_399_1414">
<rect width="374" height="192" fill="white"/>
</clipPath>
</defs>
</svg>
