<svg width="197" height="259" viewBox="0 0 197 259" fill="none" xmlns="http://www.w3.org/2000/svg">
<g clip-path="url(#clip0_399_1092)">
<path d="M127.721 60.8989H126.312V22.3246C126.312 16.4037 123.961 10.7254 119.776 6.53871C115.592 2.35204 109.916 -6.22474e-10 103.998 0H22.3142C16.3961 -6.22488e-10 10.7205 2.35204 6.53578 6.53871C2.35108 10.7254 8.58145e-05 16.4037 0 22.3246V233.943C8.58145e-05 239.864 2.35108 245.542 6.53578 249.729C10.7205 253.915 16.3961 256.267 22.3142 256.267H103.998C109.916 256.267 115.592 253.915 119.777 249.729C123.962 245.542 126.313 239.863 126.313 233.943V88.3562H127.721V60.8989Z" fill="#090814"/>
<path d="M104.903 5.80859H94.241C94.7314 7.01133 94.9186 8.31627 94.7862 9.60845C94.6537 10.9006 94.2057 12.1404 93.4815 13.2185C92.7573 14.2966 91.7792 15.18 90.6334 15.7909C89.4876 16.4017 88.2092 16.7212 86.9109 16.7213H40.1127C38.8143 16.7213 37.5359 16.4018 36.3901 15.791C35.2442 15.1802 34.2661 14.2968 33.5419 13.2187C32.8176 12.1405 32.3696 10.9007 32.2371 9.60853C32.1046 8.31632 32.2919 7.01135 32.7823 5.80859H22.8239C18.4044 5.80859 14.1659 7.56508 11.0408 10.6916C7.91579 13.8182 6.16016 18.0587 6.16016 22.4804V233.79C6.16016 238.211 7.91579 242.452 11.0408 245.578C14.1659 248.705 18.4044 250.461 22.8239 250.461H104.9C109.319 250.461 113.558 248.705 116.683 245.578C119.808 242.452 121.564 238.211 121.564 233.79V22.481C121.564 18.0599 119.808 13.8198 116.684 10.6933C113.56 7.56684 109.322 5.81002 104.903 5.80924L104.903 5.80859Z" fill="white"/>
<path d="M63.862 161.165C87.3205 161.165 106.337 142.139 106.337 118.669C106.337 95.1994 87.3205 76.1733 63.862 76.1733C40.4036 76.1733 21.3867 95.1994 21.3867 118.669C21.3867 142.139 40.4036 161.165 63.862 161.165Z" fill="#E6E6E6"/>
<path d="M102.373 38.8379H25.1875C23.0431 38.8379 21.3047 40.5771 21.3047 42.7226V49.5234C21.3047 51.6688 23.0431 53.408 25.1875 53.408H102.373C104.517 53.408 106.255 51.6688 106.255 49.5234V42.7226C106.255 40.5771 104.517 38.8379 102.373 38.8379Z" fill="#E6E6E6"/>
<path d="M29.7996 206.089C34.4912 206.089 38.2946 202.284 38.2946 197.59C38.2946 192.896 34.4912 189.091 29.7996 189.091C25.108 189.091 21.3047 192.896 21.3047 197.59C21.3047 202.284 25.108 206.089 29.7996 206.089Z" fill="#E6E6E6"/>
<path d="M97.7606 206.089C102.452 206.089 106.255 202.284 106.255 197.59C106.255 192.896 102.452 189.091 97.7606 189.091C93.0689 189.091 89.2656 192.896 89.2656 197.59C89.2656 202.284 93.0689 206.089 97.7606 206.089Z" fill="#E6E6E6"/>
<path d="M52.5535 206.089C57.2451 206.089 61.0485 202.284 61.0485 197.59C61.0485 192.896 57.2451 189.091 52.5535 189.091C47.8619 189.091 44.0586 192.896 44.0586 197.59C44.0586 202.284 47.8619 206.089 52.5535 206.089Z" fill="#E6E6E6"/>
<path d="M75.0027 206.089C79.6944 206.089 83.4977 202.284 83.4977 197.59C83.4977 192.896 79.6944 189.091 75.0027 189.091C70.3111 189.091 66.5078 192.896 66.5078 197.59C66.5078 202.284 70.3111 206.089 75.0027 206.089Z" fill="#E6E6E6"/>
<path d="M80.3078 135.203V129.203C80.3242 126.614 79.7618 124.053 78.6615 121.709C77.5612 119.365 75.951 117.297 73.9487 115.656C70.9026 113.199 66.4911 111.361 60.1709 111.771L62.5786 102.136L41.7852 116.37L62.1408 130.603L60.0615 121.515C60.0615 121.515 72.7567 119.108 80.3078 135.203Z" fill="#439F6E"/>
<path d="M31.4152 193.948C31.9514 193.949 32.4655 194.162 32.8446 194.541C33.2236 194.921 33.4365 195.435 33.4365 195.972V199.209C33.4363 199.745 33.2233 200.26 32.8443 200.639C32.4653 201.018 31.9513 201.232 31.4152 201.232H28.1795C27.6432 201.232 27.1288 201.019 26.7493 200.64C26.3699 200.261 26.1566 199.746 26.1563 199.21V195.972C26.1562 195.707 26.2084 195.443 26.31 195.198C26.4116 194.952 26.5606 194.729 26.7484 194.541C26.9363 194.353 27.1593 194.204 27.4047 194.102C27.6501 194.001 27.9132 193.948 28.1789 193.948H31.4152ZM29.7974 195.972C29.3822 195.972 28.9829 196.131 28.682 196.417C28.3811 196.703 28.2017 197.094 28.1808 197.509L28.1789 197.59C28.1789 197.91 28.2738 198.223 28.4515 198.489C28.6293 198.756 28.882 198.963 29.1776 199.086C29.4732 199.208 29.7985 199.24 30.1123 199.178C30.4262 199.115 30.7144 198.961 30.9407 198.735C31.1669 198.508 31.321 198.22 31.3835 197.906C31.4459 197.592 31.4138 197.266 31.2914 196.971C31.1689 196.675 30.9616 196.422 30.6955 196.244C30.4295 196.066 30.1167 195.972 29.7967 195.972M31.6168 195.365C31.5179 195.365 31.4225 195.401 31.3485 195.466C31.2745 195.532 31.2271 195.622 31.2152 195.721L31.2123 195.772C31.2119 195.876 31.2512 195.975 31.322 196.051C31.3928 196.126 31.4898 196.172 31.5931 196.178C31.6964 196.184 31.798 196.15 31.8772 196.083C31.9563 196.017 32.007 195.922 32.0186 195.819L32.0216 195.768C32.0216 195.661 31.9789 195.558 31.9031 195.482C31.8272 195.406 31.7244 195.363 31.6171 195.363" fill="#090814"/>
<path d="M52.5548 201.233C54.5656 201.233 56.1956 199.602 56.1956 197.591C56.1956 195.579 54.5656 193.948 52.5548 193.948C50.5441 193.948 48.9141 195.579 48.9141 197.591C48.9141 199.602 50.5441 201.233 52.5548 201.233Z" fill="black"/>
<path d="M51.5768 195.82H51.0329L53.5376 199.406H54.0819L51.5768 195.82ZM50.5508 195.554H51.748L52.7834 197.064L54.0819 195.554H54.4362L52.941 197.292L54.5669 199.66H53.3697L52.276 198.066L50.9051 199.66H50.5508L52.1191 197.837L50.5508 195.554Z" fill="white"/>
<path d="M78.0621 193.949H71.9855C71.9074 193.945 71.8293 193.957 71.7557 193.983C71.6821 194.01 71.6144 194.05 71.5566 194.103C71.4988 194.156 71.4519 194.219 71.4188 194.29C71.3856 194.361 71.3667 194.438 71.3633 194.516V200.609C71.3675 200.773 71.4344 200.929 71.5501 201.045C71.6659 201.161 71.8217 201.228 71.9855 201.233H78.0605C78.22 201.226 78.3705 201.157 78.4794 201.04C78.5884 200.923 78.6471 200.768 78.6429 200.609V194.516C78.6442 194.44 78.6298 194.364 78.6008 194.294C78.5718 194.224 78.5287 194.16 78.4741 194.107C78.4196 194.054 78.3547 194.012 78.2836 193.985C78.2125 193.958 78.1365 193.946 78.0605 193.949H78.0621ZM73.6208 200.021H72.5776V196.776H73.6208V200.021ZM73.1355 196.283H73.128C72.9779 196.282 72.8343 196.222 72.7287 196.115C72.6231 196.008 72.564 195.864 72.5645 195.714C72.565 195.563 72.625 195.42 72.7313 195.314C72.8376 195.208 72.9816 195.148 73.1317 195.148C73.2819 195.148 73.4259 195.208 73.5322 195.314C73.6385 195.42 73.6985 195.563 73.699 195.714C73.6994 195.864 73.6404 196.008 73.5348 196.115C73.4292 196.222 73.2856 196.282 73.1355 196.283ZM77.4334 200.02H76.3902V198.246C76.3902 197.821 76.2385 197.531 75.8609 197.531C75.7428 197.532 75.628 197.569 75.5322 197.638C75.4364 197.707 75.3643 197.804 75.326 197.916C75.2982 197.999 75.2859 198.085 75.2898 198.172V200.02H74.2466V196.776H75.2898V197.228C75.3847 197.063 75.5222 196.927 75.6877 196.835C75.8532 196.742 76.0407 196.695 76.2304 196.7C76.915 196.7 77.4331 197.151 77.4334 198.124V200.02Z" fill="#090814"/>
<path d="M101.397 195.964V199.412C101.397 199.69 101.291 199.958 101.1 200.161C100.909 200.364 100.647 200.486 100.369 200.502L100.304 200.504H95.2096C94.9309 200.504 94.6629 200.398 94.4602 200.207C94.2575 200.015 94.1355 199.754 94.1191 199.476L94.1172 199.412V195.964L97.5557 198.257L97.5981 198.281C97.6479 198.306 97.7026 198.318 97.758 198.318C97.8134 198.318 97.868 198.306 97.9178 198.281L97.9602 198.257L101.397 195.964Z" fill="black"/>
<path d="M100.305 194.676C100.491 194.676 100.675 194.724 100.838 194.815C101.001 194.906 101.137 195.037 101.235 195.196L97.7573 197.516L94.2773 195.196C94.3685 195.048 94.4939 194.923 94.6431 194.833C94.7922 194.743 94.9607 194.69 95.1345 194.678L95.2076 194.676H100.305Z" fill="black"/>
<path d="M183.14 117.294H173.933L172.855 110.189L179.776 109.269L183.14 117.294Z" fill="#9F616A"/>
<path d="M179.676 109.446L173.041 110.328L174.074 117.132H182.898L179.676 109.446ZM179.879 109.092L183.385 117.456H173.795L172.672 110.05L179.879 109.092Z" fill="#707070"/>
<path d="M150.85 179.851C151.232 179.62 151.559 179.309 151.808 178.939C152.057 178.569 152.222 178.148 152.291 177.708C152.36 177.267 152.331 176.816 152.207 176.387C152.084 175.959 151.867 175.562 151.574 175.227L156.945 165.806L151.323 166.17L147.084 175.061C146.552 175.592 146.234 176.299 146.189 177.049C146.144 177.799 146.376 178.539 146.84 179.13C147.304 179.72 147.968 180.12 148.707 180.253C149.447 180.386 150.209 180.243 150.85 179.852L150.85 179.851Z" fill="#9F616A"/>
<path d="M192.608 245.346H187.643L186.719 229.726H192.21L192.608 245.346Z" fill="#9F616A"/>
<path d="M166.363 245.261L161.234 244.954V229.726H166.724L166.363 245.261Z" fill="#9F616A"/>
<path d="M157.158 166.21C157.158 166.21 156.135 180.787 158.15 188.126C160.165 195.466 160.525 239.862 160.525 239.862H167.28L173.133 179.433L186.629 240.077L193.062 239.634L189.536 168.173L157.158 166.21Z" fill="#090814"/>
<path d="M186.741 117.073L181.578 113.303L172.926 115.188L170.584 120.756L166.548 122.758C165.221 123.416 164.074 124.387 163.205 125.587C162.336 126.787 161.771 128.18 161.558 129.646L155.793 169.477L189.532 168.172L193.617 121.262C193.66 120.772 193.604 120.278 193.452 119.81C193.301 119.342 193.057 118.909 192.736 118.537C192.414 118.165 192.021 117.861 191.58 117.644C191.139 117.426 190.659 117.3 190.168 117.271L186.741 117.073Z" fill="#E4E4E4"/>
<path d="M164.416 125.87L161.299 130.073L147.727 171.489L154.089 174.038L164.276 154.739L164.416 125.87Z" fill="#E4E4E4"/>
<path d="M175.573 111.779C181.276 111.779 185.899 107.153 185.899 101.447C185.899 95.7409 181.276 91.1152 175.573 91.1152C169.869 91.1152 165.246 95.7409 165.246 101.447C165.246 107.153 169.869 111.779 175.573 111.779Z" fill="#090814"/>
<path d="M175.712 112.247C179.874 112.247 183.248 108.871 183.248 104.707C183.248 100.544 179.874 97.168 175.712 97.168C171.55 97.168 168.176 100.544 168.176 104.707C168.176 108.871 171.55 112.247 175.712 112.247Z" fill="#9F616A"/>
<path d="M181.431 103.73C176.632 101.998 175.009 100.934 169.709 103.73L167.754 95.9111H183.382L181.431 103.73Z" fill="#090814"/>
<path d="M174.732 97.0282C177.969 97.0282 180.593 94.4028 180.593 91.1642C180.593 87.9257 177.969 85.3003 174.732 85.3003C171.495 85.3003 168.871 87.9257 168.871 91.1642C168.871 94.4028 171.495 97.0282 174.732 97.0282Z" fill="#090814"/>
<path d="M167.757 89.7681C167.758 88.2621 168.338 86.8142 169.378 85.7249C170.417 84.6357 171.836 83.9886 173.34 83.9181C173.246 83.9135 173.155 83.9038 173.06 83.9038C171.506 83.9038 170.015 84.5216 168.916 85.6213C167.817 86.721 167.199 88.2125 167.199 89.7677C167.199 91.323 167.817 92.8145 168.916 93.9142C170.015 95.0139 171.506 95.6317 173.06 95.6317C173.154 95.6317 173.246 95.622 173.34 95.6174C171.836 95.5469 170.417 94.8999 169.378 93.8108C168.339 92.7216 167.758 91.2739 167.757 89.7681Z" fill="#090814"/>
<path opacity="0.1" d="M189.263 128.255L187.16 149.225L179.734 163.866L189.263 128.255Z" fill="black"/>
<path d="M161.333 241.958L159.203 249.388L157.542 253.432C157.542 253.432 155.549 256.88 161.384 257.55C167.22 258.219 165.633 253.241 165.633 253.241L166.124 248.949L166.596 242.753L161.333 241.958Z" fill="#090814"/>
<path d="M192.703 242.667L193.668 250.675L194.992 255.083C194.992 255.083 196.724 258.899 190.544 259C184.365 259.1 186.539 254.05 186.539 254.05L187.805 249.684L187.268 243.109L192.703 242.667Z" fill="#090814"/>
<path d="M152.526 240.842C175.985 240.842 195.001 221.816 195.001 198.346C195.001 174.876 175.985 155.85 152.526 155.85C129.068 155.85 110.051 174.876 110.051 198.346C110.051 221.816 129.068 240.842 152.526 240.842Z" fill="#439F6E"/>
<path opacity="0.2" d="M150.518 213.386C148.572 215.333 145.933 216.427 143.182 216.427C140.43 216.427 137.791 215.333 135.845 213.386C134.173 211.713 133.122 209.518 132.867 207.165C132.612 204.813 133.168 202.443 134.443 200.45L132.16 202.781C130.214 204.728 129.121 207.368 129.121 210.121C129.121 212.874 130.214 215.515 132.16 217.462C134.106 219.408 136.745 220.502 139.497 220.502C142.249 220.502 144.888 219.408 146.833 217.462L151.892 212.207L151.969 211.88L150.518 213.386Z" fill="black"/>
<path opacity="0.2" d="M155.335 180.92C157.609 179.371 160.406 178.788 163.109 179.301C165.813 179.814 168.202 181.381 169.751 183.656C171.082 185.613 171.706 187.965 171.518 190.324C171.33 192.682 170.343 194.906 168.719 196.627L171.396 194.763C173.67 193.214 175.236 190.823 175.749 188.118C176.262 185.413 175.68 182.615 174.131 180.34C172.582 178.064 170.193 176.498 167.489 175.985C164.785 175.472 161.989 176.054 159.714 177.604L153.765 181.824L153.629 182.13L155.335 180.92Z" fill="black"/>
<path d="M139.493 221.8C137.261 221.8 135.079 221.137 133.223 219.897C131.367 218.656 129.92 216.892 129.066 214.829C128.212 212.766 127.988 210.496 128.424 208.305C128.859 206.115 129.934 204.103 131.513 202.524L141.09 192.747C142.138 191.697 143.382 190.864 144.752 190.296C146.121 189.727 147.59 189.434 149.072 189.434C150.555 189.433 152.024 189.725 153.394 190.292C154.764 190.86 156.009 191.692 157.057 192.741C157.225 192.912 157.319 193.143 157.318 193.383C157.317 193.623 157.221 193.853 157.051 194.022C156.882 194.192 156.652 194.288 156.412 194.289C156.172 194.29 155.941 194.197 155.77 194.029C153.995 192.253 151.587 191.255 149.077 191.255C146.567 191.255 144.159 192.253 142.384 194.029C140.977 198.99 137.937 202.395 132.806 203.805C131.03 205.58 130.032 207.989 130.031 210.5C130.029 213.012 131.026 215.421 132.8 217.198C134.574 218.975 136.981 219.974 139.492 219.975C142.002 219.976 144.41 218.98 146.186 217.205C145.979 215.169 146.575 213.255 151.234 211.96C151.316 211.87 151.415 211.798 151.526 211.747C151.636 211.696 151.755 211.668 151.877 211.664C151.999 211.66 152.12 211.68 152.233 211.724C152.347 211.767 152.45 211.833 152.538 211.918C152.626 212.002 152.695 212.103 152.743 212.215C152.791 212.327 152.816 212.447 152.817 212.569C152.818 212.69 152.794 212.811 152.747 212.923C152.701 213.036 152.632 213.137 152.545 213.223L147.487 218.478C146.44 219.533 145.195 220.37 143.823 220.939C142.451 221.509 140.98 221.801 139.494 221.797L139.493 221.8Z" fill="white"/>
<path d="M155.044 207.969C153.561 207.973 152.092 207.683 150.722 207.115C149.353 206.547 148.109 205.713 147.063 204.662C146.893 204.491 146.797 204.259 146.797 204.018C146.797 203.776 146.893 203.544 147.064 203.374C147.234 203.203 147.466 203.107 147.707 203.107C147.949 203.107 148.18 203.203 148.351 203.374C149.23 204.253 150.273 204.951 151.422 205.427C152.57 205.903 153.801 206.148 155.044 206.148C156.287 206.148 157.518 205.903 158.666 205.427C159.815 204.951 160.858 204.253 161.737 203.374C162.95 196.063 167.896 195.031 172.194 192.912C173.073 192.033 173.77 190.989 174.246 189.84C174.722 188.691 174.966 187.459 174.966 186.215C174.966 184.972 174.721 183.74 174.246 182.591C173.77 181.442 173.073 180.398 172.194 179.519C171.315 178.64 170.271 177.942 169.123 177.466C167.974 176.99 166.743 176.746 165.5 176.746C164.257 176.746 163.026 176.991 161.878 177.467C160.73 177.943 159.686 178.64 158.807 179.52C157.61 182.971 156.437 186.463 152.876 185.454C152.705 185.622 152.474 185.715 152.234 185.714C151.994 185.713 151.765 185.617 151.595 185.448C151.425 185.278 151.33 185.048 151.328 184.808C151.327 184.568 151.421 184.337 151.589 184.166L157.52 178.232C158.566 177.174 159.811 176.333 161.182 175.758C162.554 175.182 164.026 174.884 165.513 174.88C167.001 174.876 168.474 175.166 169.849 175.733C171.224 176.301 172.474 177.135 173.525 178.187C174.577 179.239 175.411 180.489 175.978 181.865C176.545 183.241 176.835 184.715 176.831 186.203C176.827 187.691 176.529 189.164 175.954 190.536C175.379 191.909 174.538 193.154 173.481 194.2L163.024 204.662C161.979 205.713 160.735 206.547 159.365 207.115C157.995 207.683 156.527 207.973 155.044 207.969Z" fill="white"/>
<path d="M189.43 176.718C187.646 173.687 185.499 170.885 183.037 168.374C182.487 167.815 181.921 167.269 181.341 166.738C181.02 166.443 180.694 166.155 180.365 165.873C179.737 165.332 179.09 164.81 178.432 164.306C170.995 158.615 161.889 155.536 152.525 155.546C128.939 155.546 109.746 174.745 109.746 198.346C109.745 200.948 109.982 203.545 110.453 206.104C110.454 206.119 110.456 206.133 110.459 206.147C110.674 207.321 110.941 208.481 111.251 209.619C113.443 217.654 117.931 224.874 124.164 230.394C130.397 235.914 138.104 239.495 146.341 240.697C154.579 241.899 162.987 240.671 170.537 237.162C178.087 233.654 184.449 228.017 188.844 220.944C189.436 219.991 189.992 219.014 190.513 218.012C193.835 211.598 195.478 204.447 195.289 197.225C195.1 190.004 193.084 182.949 189.43 176.718ZM152.525 240.538C146.986 240.54 141.502 239.45 136.384 237.331C131.267 235.211 126.617 232.103 122.701 228.185C118.784 224.267 115.678 219.615 113.559 214.495C111.44 209.375 110.351 203.888 110.353 198.346C110.353 175.08 129.272 156.154 152.525 156.154C158.152 156.157 163.721 157.287 168.905 159.478C174.088 161.669 178.781 164.875 182.707 168.909C183.73 169.954 184.697 171.055 185.601 172.205C186.496 173.331 187.332 174.503 188.104 175.717C191.323 180.776 193.426 186.463 194.273 192.399C195.121 198.335 194.693 204.384 193.019 210.142C192.646 211.429 192.21 212.689 191.717 213.924C191.225 215.159 190.673 216.377 190.067 217.554C186.519 224.462 181.139 230.26 174.518 234.314C167.896 238.368 160.288 240.521 152.525 240.538Z" fill="#3F3D56"/>
<path d="M137.77 199.412C138.272 199.412 138.68 199.004 138.68 198.501C138.68 197.999 138.272 197.591 137.77 197.591C137.267 197.591 136.859 197.999 136.859 198.501C136.859 199.004 137.267 199.412 137.77 199.412Z" fill="#439F6E"/>
<path d="M166.59 198.805C167.093 198.805 167.5 198.397 167.5 197.894C167.5 197.391 167.093 196.983 166.59 196.983C166.087 196.983 165.68 197.391 165.68 197.894C165.68 198.397 166.087 198.805 166.59 198.805Z" fill="#439F6E"/>
<path d="M177.097 171.299C177.066 170.854 177.133 170.407 177.293 169.991C177.453 169.574 177.702 169.198 178.023 168.888C178.344 168.578 178.729 168.343 179.151 168.198C179.573 168.053 180.022 168.003 180.465 168.05L185.088 158.239L188.02 163.052L183.18 171.631C183.051 172.371 182.655 173.038 182.068 173.506C181.48 173.973 180.741 174.209 179.991 174.168C179.241 174.127 178.533 173.812 177.999 173.283C177.466 172.755 177.145 172.048 177.097 171.298V171.299Z" fill="#9F616A"/>
<path d="M189.667 119.976L191.571 117.492C191.571 117.492 196.21 116.547 196.998 122.921L196.501 151.262L186.335 167.27L179.734 165.583L188.366 146.567L189.667 119.976Z" fill="#E4E4E4"/>
</g>
<defs>
<clipPath id="clip0_399_1092">
<rect width="197" height="259" fill="white"/>
</clipPath>
</defs>
</svg>
