<svg width="24" height="24" viewBox="0 0 24 24" fill="none" xmlns="http://www.w3.org/2000/svg">
<path fill-rule="evenodd" clip-rule="evenodd" d="M3.34222 10.7248L5.00022 11.2773V15.5003C5.00023 15.6043 5.03264 15.7056 5.09295 15.7903C5.15326 15.875 5.23847 15.9388 5.33672 15.9728L11.8327 18.2213C11.9355 18.2578 12.0473 18.2597 12.1512 18.2268L12.1582 18.2248L12.1657 18.2223L18.6637 15.9728C18.762 15.9388 18.8472 15.875 18.9075 15.7903C18.9678 15.7056 19.0002 15.6043 19.0002 15.5003V11.2773L20.6582 10.7248C20.7347 10.6994 20.8039 10.6558 20.8599 10.5979C20.9159 10.5399 20.9571 10.4693 20.98 10.392C21.0028 10.3147 21.0066 10.233 20.9911 10.1539C20.9755 10.0749 20.9411 10.0007 20.8907 9.93779L18.8907 7.43779C18.8314 7.36394 18.7523 7.30845 18.6627 7.27779L12.1637 5.02779C12.0578 4.99114 11.9426 4.99114 11.8367 5.02779L5.33772 7.27779C5.2481 7.30845 5.16903 7.36394 5.10972 7.43779L3.10972 9.93779C3.05934 10.0007 3.02492 10.0749 3.00938 10.1539C2.99384 10.233 2.99765 10.3147 3.02049 10.392C3.04332 10.4693 3.0845 10.5399 3.14053 10.5979C3.19655 10.6558 3.26574 10.6994 3.34222 10.7248ZM10.6597 12.7868L11.5002 11.5868V17.0483L6.00022 15.1443V11.6103L10.0922 12.9743C10.1944 13.0083 10.3049 13.0083 10.4072 12.9744C10.5094 12.9406 10.598 12.8751 10.6597 12.7868ZM7.02872 7.75029L12.0002 9.47129L16.9717 7.75029L12.0002 6.02929L7.02872 7.75029ZM13.3407 12.7873L12.5002 11.5863V17.0483L18.0002 15.1443V11.6103L13.9082 12.9743C13.806 13.0083 13.6955 13.0083 13.5933 12.9744C13.491 12.9406 13.4024 12.8746 13.3407 12.7863M5.67022 8.33829L4.33872 10.0028L7.09422 10.9213L10.0542 11.9078L11.2107 10.2563L11.1432 10.2328L5.67022 8.33829ZM19.6617 10.0028L18.3302 8.33779L12.7897 10.2563L13.9462 11.9078L19.6617 10.0028Z" fill="black"/>
</svg>
