<svg width="24" height="24" viewBox="0 0 24 24" fill="none" xmlns="http://www.w3.org/2000/svg">
<path fill-rule="evenodd" clip-rule="evenodd" d="M17.5 3C17.8105 3 18.1167 3.07229 18.3944 3.21115C18.6721 3.35 18.9137 3.55161 19.1 3.8L21.788 7.384C21.9226 7.56095 21.9944 7.7777 21.992 8H22V9C22.0001 9.97436 21.6445 10.9152 21 11.646V19C21 19.5304 20.7893 20.0391 20.4142 20.4142C20.0391 20.7893 19.5304 21 19 21H5C4.46957 21 3.96086 20.7893 3.58579 20.4142C3.21071 20.0391 3 19.5304 3 19V11.646C2.35552 10.9152 1.99994 9.97436 2 9V8H2.008C2.00564 7.7777 2.07742 7.56095 2.212 7.384L4.9 3.8C5.08629 3.55161 5.32786 3.35 5.60557 3.21115C5.88328 3.07229 6.18951 3 6.5 3H17.5ZM20 9H16C15.9977 9.51898 16.1972 10.0185 16.5564 10.3932C16.9156 10.7678 17.4063 10.9881 17.9249 11.0075C18.4436 11.027 18.9494 10.8441 19.3357 10.4975C19.722 10.1509 19.9584 9.6677 19.995 9.15L20 9ZM14 9H10C9.99768 9.51898 10.1972 10.0185 10.5564 10.3932C10.9156 10.7678 11.4063 10.9881 11.9249 11.0075C12.4436 11.027 12.9494 10.8441 13.3357 10.4975C13.722 10.1509 13.9584 9.6677 13.995 9.15L14 9ZM8 9H4C3.99768 9.51898 4.19719 10.0185 4.55638 10.3932C4.91557 10.7678 5.40632 10.9881 5.92494 11.0075C6.44356 11.027 6.94945 10.8441 7.33572 10.4975C7.72199 10.1509 7.9584 9.6677 7.995 9.15L8 9Z" fill="white"/>
</svg>
