<svg width="22" height="20" viewBox="0 0 22 20" fill="none" xmlns="http://www.w3.org/2000/svg">
<path d="M4 19H10.75L16.75 17.5L20.39 15.948C20.7398 15.7777 21.0131 15.4825 21.156 15.1206C21.2988 14.7587 21.3008 14.3564 21.1615 13.9932C21.0223 13.6299 20.7519 13.332 20.4037 13.1583C20.0556 12.9846 19.655 12.9477 19.281 13.055L13 14.5H12.625M4 19V13.75M4 19H0.5V13.75H4M12.625 14.5C13.1223 14.5 13.5992 14.3024 13.9508 13.9508C14.3025 13.5992 14.5 13.1223 14.5 12.625C14.5 12.1277 14.3025 11.6508 13.9508 11.2991C13.5992 10.9475 13.1223 10.75 12.625 10.75H7.937C7.6414 10.7493 7.34856 10.8069 7.07523 10.9195C6.80189 11.032 6.55342 11.1973 6.344 11.406L4 13.75M12.625 14.5H10.5M16.5 0.83697C17.0335 0.584237 17.6222 0.47054 18.2114 0.506454C18.8006 0.542368 19.3712 0.726727 19.87 1.04238C20.3688 1.35803 20.7797 1.79473 21.0645 2.31183C21.3492 2.82894 21.4985 3.40966 21.4985 3.99997C21.4985 4.59028 21.3492 5.171 21.0645 5.68811C20.7797 6.20521 20.3688 6.64191 19.87 6.95756C19.3712 7.27321 18.8006 7.45757 18.2114 7.49349C17.6222 7.5294 17.0335 7.4157 16.5 7.16297M14 7.49997C13.5404 7.49997 13.0852 7.40944 12.6606 7.23355C12.236 7.05766 11.8501 6.79985 11.5251 6.47484C11.2001 6.14984 10.9423 5.764 10.7664 5.33936C10.5905 4.91472 10.5 4.4596 10.5 3.99997C10.5 3.54034 10.5905 3.08522 10.7664 2.66058C10.9423 2.23594 11.2001 1.8501 11.5251 1.5251C11.8501 1.20009 12.236 0.942283 12.6606 0.766392C13.0852 0.5905 13.5404 0.49997 14 0.49997C14.9283 0.49997 15.8185 0.868719 16.4749 1.5251C17.1313 2.18147 17.5 3.07171 17.5 3.99997C17.5 4.92823 17.1313 5.81847 16.4749 6.47484C15.8185 7.13122 14.9283 7.49997 14 7.49997Z" stroke="black" stroke-linecap="square"/>
</svg>
