<svg width="20" height="19" viewBox="0 0 20 19" fill="none" xmlns="http://www.w3.org/2000/svg">
<path d="M16.5 4.5V1.5C16.5 1.23478 16.3946 0.98043 16.2071 0.792893C16.0196 0.605357 15.7652 0.5 15.5 0.5H2.5C1.96957 0.5 1.46086 0.710714 1.08579 1.08579C0.710714 1.46086 0.5 1.96957 0.5 2.5C0.5 3.03043 0.710714 3.53914 1.08579 3.91421C1.46086 4.28929 1.96957 4.5 2.5 4.5H17.5C17.7652 4.5 18.0196 4.60536 18.2071 4.79289C18.3946 4.98043 18.5 5.23478 18.5 5.5V9.5M18.5 9.5H15.5C14.9696 9.5 14.4609 9.71071 14.0858 10.0858C13.7107 10.4609 13.5 10.9696 13.5 11.5C13.5 12.0304 13.7107 12.5391 14.0858 12.9142C14.4609 13.2893 14.9696 13.5 15.5 13.5H18.5C18.7652 13.5 19.0196 13.3946 19.2071 13.2071C19.3946 13.0196 19.5 12.7652 19.5 12.5V10.5C19.5 10.2348 19.3946 9.98043 19.2071 9.79289C19.0196 9.60536 18.7652 9.5 18.5 9.5Z" stroke="#002D38" stroke-linecap="round" stroke-linejoin="round"/>
<path d="M0.5 2.5V16.5C0.5 17.0304 0.710714 17.5391 1.08579 17.9142C1.46086 18.2893 1.96957 18.5 2.5 18.5H17.5C17.7652 18.5 18.0196 18.3946 18.2071 18.2071C18.3946 18.0196 18.5 17.7652 18.5 17.5V13.5" stroke="#002D38" stroke-linecap="round" stroke-linejoin="round"/>
</svg>
